<svg width="31" height="31" viewBox="0 0 31 31" fill="none" xmlns="http://www.w3.org/2000/svg">
<path d="M15.9141 30.0151C17.2581 30.0151 18.5601 29.8381 19.7991 29.5066L16.6101 26.3191C16.3681 26.0762 16.1547 25.8065 15.9741 25.5151H15.9141C13.8374 25.5151 11.8073 24.8993 10.0806 23.7456C8.35386 22.5918 7.00805 20.9519 6.21333 19.0333C5.41861 17.1147 5.21067 15.0035 5.61582 12.9667C6.02096 10.9299 7.02099 9.05897 8.48944 7.59052C9.95789 6.12206 11.8288 5.12204 13.8656 4.71689C15.9024 4.31175 18.0136 4.51968 19.9322 5.3144C21.8509 6.10912 23.4907 7.45493 24.6445 9.18165C25.7982 10.9084 26.4141 12.9384 26.4141 15.0151V15.0751C26.7021 15.2551 26.9721 15.4666 27.2166 15.7126L30.4056 18.9001C30.7371 17.6611 30.9141 16.3591 30.9141 15.0151C30.9141 6.73064 24.1986 0.0151367 15.9141 0.0151367C7.62956 0.0151367 0.914062 6.73064 0.914062 15.0151C0.914062 23.2996 7.62956 30.0151 15.9141 30.0151ZM15.2931 22.4896C15.2931 21.2131 15.2301 19.9186 15.2991 18.6436L14.4891 17.8336C14.2104 17.555 13.9894 17.2242 13.8386 16.8602C13.6878 16.4961 13.6102 16.1059 13.6102 15.7119C13.6102 15.3178 13.6878 14.9277 13.8386 14.5636C13.9894 14.1996 14.2104 13.8688 14.4891 13.5901C14.7677 13.3115 15.0985 13.0905 15.4625 12.9397C15.8266 12.7889 16.2168 12.7113 16.6108 12.7113C17.0049 12.7113 17.395 12.7889 17.7591 12.9397C18.1231 13.0905 18.4539 13.3115 18.7326 13.5901L19.5426 14.4001C20.8176 14.3311 22.1106 14.3941 23.3886 14.3941C23.2701 12.9686 22.7464 11.6067 21.8793 10.4691C21.0122 9.33141 19.8379 8.46544 18.4948 7.9733C17.1517 7.48115 15.6958 7.38335 14.299 7.69144C12.9021 7.99953 11.6225 8.70065 10.611 9.71211C9.59957 10.7236 8.89845 12.0032 8.59036 13.4001C8.28228 14.7969 8.38007 16.2527 8.87222 17.5958C9.36437 18.9389 10.2303 20.1133 11.368 20.9804C12.5057 21.8475 13.8676 22.3711 15.2931 22.4896ZM25.6701 29.8246C25.9439 29.7111 26.1779 29.519 26.3426 29.2726C26.5073 29.0262 26.5953 28.7365 26.5956 28.4401V25.6951H29.3391C29.6357 25.6951 29.9256 25.6071 30.1723 25.4422C30.4189 25.2774 30.6111 25.0432 30.7246 24.7691C30.8381 24.4951 30.8678 24.1935 30.8099 23.9026C30.7521 23.6117 30.6093 23.3444 30.3996 23.1346L25.0941 17.8351C24.8128 17.5538 24.4314 17.3957 24.0336 17.3956H20.4141L17.6706 14.6521C17.3891 14.3709 17.0074 14.2129 16.6095 14.2131C16.2116 14.2132 15.8301 14.3714 15.5488 14.6529C15.2676 14.9343 15.1096 15.316 15.1098 15.7139C15.1099 16.1118 15.2681 16.4934 15.5496 16.7746L18.2931 19.5151V23.1361C18.2929 23.3334 18.3316 23.5287 18.4071 23.7109C18.4825 23.8931 18.5931 24.0587 18.7326 24.1981L24.0351 29.5006C24.2448 29.7105 24.5121 29.8535 24.8032 29.9114C25.0942 29.9694 25.3959 29.9397 25.6701 29.8261V29.8246Z" fill="#0066FF"/>
</svg>
