<svg width="11" height="11" viewBox="0 0 11 11" fill="none" xmlns="http://www.w3.org/2000/svg">
<g clip-path="url(#clip0_909_833)">
<path d="M0.587338 3.24905L5.164 8.4453C5.20546 8.48854 5.25524 8.52295 5.31034 8.54646C5.36544 8.56997 5.42472 8.58208 5.48463 8.58208C5.54453 8.58208 5.60382 8.56997 5.65892 8.54646C5.71402 8.52295 5.7638 8.48854 5.80525 8.4453L10.3798 3.24905C10.4164 3.20783 10.4444 3.15967 10.462 3.10744C10.4796 3.05522 10.4865 2.99998 10.4823 2.94502C10.4782 2.89006 10.463 2.8365 10.4378 2.78752C10.4125 2.73853 10.3776 2.69513 10.3353 2.65988L9.56442 2.01113C9.47846 1.93866 9.36746 1.9029 9.25537 1.91155C9.14327 1.9202 9.03907 1.97258 8.96525 2.05738L5.56317 5.99613C5.55339 6.0075 5.54128 6.01662 5.52765 6.02287C5.51402 6.02912 5.49921 6.03235 5.48421 6.03235C5.46922 6.03235 5.4544 6.02912 5.44078 6.02287C5.42715 6.01662 5.41503 6.0075 5.40525 5.99613L2.00192 2.05697C1.92804 1.97256 1.82381 1.92074 1.71192 1.9128C1.65644 1.90785 1.60053 1.91408 1.5475 1.93111C1.49447 1.94815 1.44539 1.97564 1.40317 2.01196L0.631921 2.65988C0.589305 2.69506 0.554209 2.73847 0.528724 2.7875C0.50324 2.83654 0.48789 2.8902 0.483588 2.9453C0.479417 3.00032 0.486462 3.05561 0.504296 3.10782C0.52213 3.16003 0.550382 3.20808 0.587338 3.24905Z" fill="black"/>
</g>
<defs>
<clipPath id="clip0_909_833">
<rect width="10" height="10" fill="white" transform="translate(0.482422 0.246124)"/>
</clipPath>
</defs>
</svg>
