<svg width="26" height="19" viewBox="0 0 26 19" fill="none" xmlns="http://www.w3.org/2000/svg">
<path d="M0 1.28521C0 0.574792 0.576083 0 1.28521 0H11.6315C11.9723 1.01584e-08 12.2992 0.135405 12.5402 0.376429C12.7813 0.617452 12.9167 0.94435 12.9167 1.28521C12.9167 1.62607 12.7813 1.95296 12.5402 2.19399C12.2992 2.43501 11.9723 2.57042 11.6315 2.57042H1.28521C0.94435 2.57042 0.617452 2.43501 0.376429 2.19399C0.135406 1.95296 0 1.62607 0 1.28521ZM0 9.04167C0 8.33125 0.576083 7.75646 1.28521 7.75646H24.5481C24.889 7.75646 25.2159 7.89186 25.4569 8.13289C25.6979 8.37391 25.8333 8.70081 25.8333 9.04167C25.8333 9.38253 25.6979 9.70942 25.4569 9.95045C25.2159 10.1915 24.889 10.3269 24.5481 10.3269H1.28521C0.94435 10.3269 0.617452 10.1915 0.376429 9.95045C0.135406 9.70942 0 9.38253 0 9.04167ZM1.28521 15.5129C0.94435 15.5129 0.617452 15.6483 0.376429 15.8893C0.135406 16.1304 0 16.4573 0 16.7981C0 17.139 0.135406 17.4659 0.376429 17.7069C0.617452 17.9479 0.94435 18.0833 1.28521 18.0833H16.7981C17.139 18.0833 17.4659 17.9479 17.7069 17.7069C17.9479 17.4659 18.0833 17.139 18.0833 16.7981C18.0833 16.4573 17.9479 16.1304 17.7069 15.8893C17.4659 15.6483 17.139 15.5129 16.7981 15.5129H1.28521Z" fill="black"/>
</svg>
