<svg width="34" height="35" viewBox="0 0 34 35" fill="none" xmlns="http://www.w3.org/2000/svg">
<path d="M27.0852 0.0159638C28.343 0.0158496 29.5731 0.385411 30.6226 1.07871C31.6721 1.77201 32.4947 2.75846 32.9881 3.91545C33.4815 5.07244 33.624 6.34893 33.3979 7.58625C33.1717 8.82356 32.5869 9.96713 31.7162 10.8748C32.8939 13.1901 33.5058 15.7517 33.5018 18.3493C33.5044 20.55 33.0653 22.7289 32.2107 24.7569C31.356 26.785 30.1031 28.6209 28.5262 30.156L28.1192 30.541L29.298 31.7198C29.6268 32.0497 29.8177 32.4924 29.8319 32.958C29.8461 33.4236 29.6826 33.8771 29.3746 34.2265C29.0665 34.5758 28.637 34.7949 28.1733 34.839C27.7096 34.8832 27.2465 34.7492 26.878 34.4643L26.7057 34.3121L25.1143 32.7208C22.6399 34.1203 19.8446 34.8537 17.0018 34.8493C14.3743 34.8534 11.7841 34.2272 9.44851 33.0233L8.88934 32.7208L7.29801 34.3121C6.96809 34.6409 6.52538 34.8318 6.05981 34.8461C5.59423 34.8603 5.1407 34.6967 4.79133 34.3887C4.44196 34.0806 4.22295 33.6511 4.17878 33.1874C4.13461 32.7237 4.26859 32.2606 4.55351 31.8921L4.70568 31.7198L5.88451 30.541C4.1868 28.9965 2.83091 27.114 1.90392 25.0143C0.976937 22.9147 0.499352 20.6444 0.501844 18.3493C0.497701 15.7517 1.10967 13.1901 2.28751 10.8748C1.68056 10.2425 1.20958 9.49253 0.903632 8.67119C0.59768 7.84985 0.463239 6.97453 0.508599 6.09923C0.55396 5.22393 0.778161 4.3672 1.16737 3.58189C1.55659 2.79657 2.10256 2.09932 2.77162 1.53313C3.44068 0.966943 4.21865 0.543829 5.05753 0.289882C5.89641 0.0359354 6.77842 -0.0434592 7.64917 0.0565953C8.51991 0.15665 9.36093 0.434032 10.1203 0.871634C10.8798 1.30924 11.5415 1.89778 12.0647 2.60096C13.6627 2.10125 15.3275 1.84779 17.0018 1.8493C18.7215 1.8493 20.3788 2.11146 21.939 2.60096C22.5355 1.79829 23.3116 1.14642 24.2052 0.697538C25.0988 0.248657 26.0851 0.0152362 27.0852 0.0159638ZM17.0018 5.51596C15.3165 5.51596 13.6478 5.84791 12.0907 6.49284C10.5337 7.13778 9.11899 8.08308 7.92731 9.27476C6.73562 10.4664 5.79033 11.8812 5.14539 13.4382C4.50045 14.9952 4.16851 16.664 4.16851 18.3493C4.16851 20.0346 4.50045 21.7034 5.14539 23.2604C5.79033 24.8174 6.73562 26.2321 7.92731 27.4238C9.11899 28.6155 10.5337 29.5608 12.0907 30.2058C13.6478 30.8507 15.3165 31.1826 17.0018 31.1826C20.4055 31.1826 23.6697 29.8306 26.0764 27.4238C28.4831 25.0171 29.8352 21.7529 29.8352 18.3493C29.8352 14.9457 28.4831 11.6815 26.0764 9.27476C23.6697 6.86804 20.4055 5.51596 17.0018 5.51596ZM17.0018 9.18263C17.4881 9.18263 17.9544 9.37579 18.2982 9.7196C18.642 10.0634 18.8352 10.5297 18.8352 11.016V17.5903L22.159 20.9123C22.503 21.2563 22.6963 21.7229 22.6963 22.2094C22.6963 22.6959 22.503 23.1625 22.159 23.5065C21.815 23.8505 21.3484 24.0437 20.8619 24.0437C20.3754 24.0437 19.9089 23.8505 19.5648 23.5065L15.7057 19.6455C15.5323 19.4726 15.3954 19.2667 15.3032 19.04C15.2109 18.8132 15.1651 18.5702 15.1685 18.3255V11.016C15.1685 10.5297 15.3617 10.0634 15.7055 9.7196C16.0493 9.37579 16.5156 9.18263 17.0018 9.18263ZM6.91851 3.68263C6.45147 3.68232 5.99205 3.80096 5.58356 4.02736C5.17507 4.25377 4.83097 4.58048 4.58371 4.97669C4.33644 5.3729 4.19416 5.82556 4.17027 6.29198C4.14638 6.75841 4.24168 7.22323 4.44718 7.64263C5.60897 6.28165 6.98341 5.1177 8.51718 4.19596C8.05117 3.86171 7.492 3.68216 6.91851 3.68263ZM27.0852 3.68263C26.4893 3.68263 25.9375 3.87146 25.4865 4.19596C27.0203 5.11768 28.3947 6.28162 29.5565 7.64263C29.762 7.22323 29.8573 6.75841 29.8334 6.29198C29.8095 5.82556 29.6672 5.3729 29.42 4.97669C29.1727 4.58048 28.8286 4.25377 28.4201 4.02736C28.0116 3.80096 27.5522 3.68232 27.0852 3.68263Z" fill="#0066FF"/>
</svg>
