<svg width="139" height="140" viewBox="0 0 139 140" fill="none" xmlns="http://www.w3.org/2000/svg">
<path d="M67.4036 104.983C90.4137 104.983 109.067 86.3487 109.067 63.3623C109.067 40.376 90.4137 21.7419 67.4036 21.7419C44.3936 21.7419 25.7402 40.376 25.7402 63.3623C25.7402 86.3487 44.3936 104.983 67.4036 104.983Z" fill="#F0F1F8"/>
<path d="M21.1925 78.3353C21.337 78.2753 21.4682 78.1874 21.5786 78.0767C21.6891 77.9659 21.7766 77.8345 21.8363 77.6899C21.8959 77.5453 21.9265 77.3903 21.9262 77.2339C21.9259 77.0775 21.8948 76.9226 21.8347 76.7782C21.823 76.7483 21.8099 76.719 21.7952 76.6904C21.6612 76.3949 21.4156 76.1645 21.1121 76.0494C20.8087 75.9343 20.4721 75.944 20.1758 76.0764C20.1538 76.086 20.1319 76.0975 20.11 76.108C19.953 76.168 19.8113 76.262 19.6948 76.3832C19.5784 76.5044 19.4903 76.6498 19.4366 76.8091C19.383 76.9683 19.3652 77.1375 19.3845 77.3045C19.4039 77.4714 19.4599 77.632 19.5485 77.7748C19.6503 78.0527 19.8583 78.2788 20.1268 78.4035C20.3952 78.5282 20.7022 78.5412 20.9802 78.4397C21.0545 78.4126 21.1257 78.3776 21.1925 78.3353Z" fill="#2B265E"/>
<path d="M12.4191 66.0535C12.5635 65.9935 12.6947 65.9057 12.8052 65.7949C12.9157 65.6842 13.0032 65.5527 13.0628 65.4081C13.1225 65.2635 13.1531 65.1086 13.1528 64.9521C13.1525 64.7957 13.1214 64.6409 13.0612 64.4965C13.0496 64.4666 13.0364 64.4372 13.0218 64.4087C12.8877 64.1131 12.6421 63.8827 12.3387 63.7677C12.0353 63.6526 11.6986 63.6623 11.4023 63.7947C11.3804 63.8043 11.3585 63.8157 11.3365 63.8262C11.1796 63.8863 11.0378 63.9802 10.9214 64.1015C10.805 64.2227 10.7168 64.3681 10.6632 64.5273C10.6095 64.6866 10.5918 64.8558 10.6111 65.0227C10.6304 65.1897 10.6865 65.3503 10.7751 65.493C10.8769 65.771 11.0849 65.9971 11.3533 66.1217C11.6218 66.2464 11.9287 66.2595 12.2068 66.1579C12.2811 66.1309 12.3523 66.0959 12.4191 66.0535Z" fill="#97D3F1"/>
<path d="M114.959 82.1574C115.613 82.1574 116.144 81.6272 116.144 80.9731C116.144 80.319 115.613 79.7888 114.959 79.7888C114.304 79.7888 113.773 80.319 113.773 80.9731C113.773 81.6272 114.304 82.1574 114.959 82.1574Z" fill="#E7E6E6"/>
<path d="M127.211 67.8409C127.865 67.8409 128.396 67.3106 128.396 66.6566C128.396 66.0025 127.865 65.4723 127.211 65.4723C126.556 65.4723 126.025 66.0025 126.025 66.6566C126.025 67.3106 126.556 67.8409 127.211 67.8409Z" fill="#CCE0FF"/>
<path d="M117.33 50.2203C117.984 50.2203 118.515 49.69 118.515 49.036C118.515 48.3819 117.984 47.8517 117.33 47.8517C116.675 47.8517 116.145 48.3819 116.145 49.036C116.145 49.69 116.675 50.2203 117.33 50.2203Z" fill="#CCE0FF"/>
<path d="M21.8356 49.2228C22.4901 49.2228 23.0207 48.6926 23.0207 48.0385C23.0207 47.3845 22.4901 46.8542 21.8356 46.8542C21.181 46.8542 20.6504 47.3845 20.6504 48.0385C20.6504 48.6926 21.181 49.2228 21.8356 49.2228Z" fill="#E7E6E6"/>
<path d="M93.3685 42.6463H93.3695H102.372V98.1788C102.372 100.798 101.332 103.31 99.4797 105.162C97.6276 107.014 95.1157 108.055 92.4966 108.055H47.7975C45.1783 108.055 42.6664 107.014 40.8143 105.162C38.9623 103.31 37.9219 100.798 37.9219 98.1788V32.6176C37.9219 29.9984 38.9623 27.4865 40.8143 25.6345C42.6664 23.7824 45.1783 22.7419 47.7975 22.7419H84.0318V33.3127V33.3142C84.0354 35.7889 85.0204 38.1612 86.7707 39.9107C88.521 41.6601 90.8938 42.6439 93.3685 42.6463Z" fill="white" stroke="#0066FF" stroke-width="2"/>
<path d="M21.1309 107.274H118.506" stroke="#0066FF" stroke-width="3" stroke-linecap="round"/>
<path d="M103.372 41.6463H93.3689C91.159 41.6442 89.0401 40.7656 87.4771 39.2034C85.914 37.6411 85.0345 35.5226 85.0312 33.3127V21.7419L103.372 41.6463Z" fill="#0066FF"/>
<path d="M89.7029 55.5815H47.9744C47.5739 55.5805 47.19 55.4208 46.9068 55.1376C46.6236 54.8544 46.464 54.4706 46.4629 54.07C46.4629 53.6688 46.622 53.2838 46.9053 52.9997C47.1887 52.7156 47.5732 52.5555 47.9744 52.5544H89.7029C90.1042 52.5555 90.4886 52.7156 90.772 52.9997C91.0553 53.2838 91.2144 53.6688 91.2144 54.07C91.2134 54.4706 91.0537 54.8544 90.7705 55.1376C90.4873 55.4208 90.1035 55.5805 89.7029 55.5815Z" fill="#0066FF"/>
<path d="M89.7029 64.6223H47.9744C47.5739 64.6212 47.19 64.4616 46.9068 64.1784C46.6236 63.8951 46.464 63.5113 46.4629 63.1108C46.4629 62.7095 46.622 62.3246 46.9053 62.0405C47.1887 61.7564 47.5732 61.5963 47.9744 61.5952H89.7029C90.1042 61.5963 90.4886 61.7564 90.772 62.0405C91.0553 62.3246 91.2144 62.7095 91.2144 63.1108C91.2134 63.5113 91.0537 63.8951 90.7705 64.1784C90.4873 64.4616 90.1035 64.6212 89.7029 64.6223Z" fill="#0066FF"/>
<path d="M89.7029 73.6631H47.9744C47.5732 73.662 47.1887 73.5019 46.9053 73.2178C46.622 72.9337 46.4629 72.5488 46.4629 72.1475C46.464 71.747 46.6236 71.3631 46.9068 71.0799C47.19 70.7967 47.5739 70.6371 47.9744 70.636H89.7029C90.1035 70.6371 90.4873 70.7967 90.7705 71.0799C91.0537 71.3631 91.2134 71.747 91.2144 72.1475C91.2144 72.5488 91.0553 72.9337 90.772 73.2178C90.4886 73.5019 90.1042 73.662 89.7029 73.6631Z" fill="#0066FF"/>
<path d="M89.7029 82.6999H47.9744C47.5735 82.6999 47.1891 82.5407 46.9056 82.2572C46.6222 81.9737 46.4629 81.5893 46.4629 81.1884C46.4629 80.7872 46.622 80.4023 46.9053 80.1181C47.1887 79.834 47.5732 79.6739 47.9744 79.6729H89.7029C90.1042 79.6739 90.4886 79.834 90.772 80.1181C91.0553 80.4023 91.2144 80.7872 91.2144 81.1884C91.2144 81.5893 91.0552 81.9737 90.7717 82.2572C90.4882 82.5407 90.1038 82.6999 89.7029 82.6999Z" fill="#0066FF"/>
<path d="M111.26 90.6938H60.7251C57.1404 90.6938 54.2344 93.5998 54.2344 97.1845V112.251C54.2344 115.836 57.1404 118.742 60.7251 118.742H111.26C114.845 118.742 117.751 115.836 117.751 112.251V97.1845C117.751 93.5998 114.845 90.6938 111.26 90.6938Z" fill="#FFD700"/>
<path d="M81.336 107.915C81.336 110.039 79.68 111.803 76.728 111.803C74.01 111.803 71.886 110.453 71.796 107.897H75.072C75.162 108.869 75.774 109.337 76.638 109.337C77.538 109.337 78.114 108.887 78.114 108.149C78.114 105.809 71.796 107.069 71.832 102.587C71.832 100.193 73.794 98.8605 76.44 98.8605C79.194 98.8605 81.048 100.229 81.174 102.641H77.844C77.79 101.831 77.214 101.345 76.386 101.327C75.648 101.309 75.09 101.687 75.09 102.479C75.09 104.675 81.336 103.685 81.336 107.915ZM89.9083 103.145C89.9083 102.209 89.3683 101.597 88.2163 101.597H86.3083V104.729H88.2163C89.3683 104.729 89.9083 104.135 89.9083 103.145ZM83.2303 99.0405H88.3963C91.4923 99.0405 93.0403 100.823 93.0403 103.019C93.0403 104.603 92.1763 106.097 90.2323 106.673L93.1483 111.677H89.6743L87.0463 106.907H86.3083V111.677H83.2303V99.0405ZM94.2884 101.507V99.0405H104.062V101.507H100.714V111.677H97.6364V101.507H94.2884Z" fill="#0066FF"/>
<path d="M69.5003 107.979V110.918H66.457V107.979H69.5003Z" fill="white"/>
</svg>
