<svg width="139" height="140" viewBox="0 0 139 140" fill="none" xmlns="http://www.w3.org/2000/svg">
<path d="M69.4891 117.372C95.7188 117.372 116.982 96.1306 116.982 69.928C116.982 43.7254 95.7188 22.484 69.4891 22.484C43.2594 22.484 21.9961 43.7254 21.9961 69.928C21.9961 96.1306 43.2594 117.372 69.4891 117.372Z" fill="#F0F1F8"/>
<path d="M82.3395 28.382H54.9285C49.5225 28.382 42.2195 27.082 37.4065 29.638C35.7465 30.515 36.6005 32.599 36.6005 34.281V107.875H102.3V46.858C102.3 46.858 86.1805 28.382 82.3395 28.382Z" fill="white"/>
<path d="M87.2178 63.08C85.8167 60.3041 83.8114 57.8708 81.3465 55.9554C78.8816 54.0401 76.0185 52.6906 72.9635 52.004C69.9086 51.3173 66.7379 51.3106 63.6801 51.9846C60.6222 52.6586 57.7535 53.9963 55.2805 55.9014C49.6431 62.9144 47.8055 70.6163 51.1806 79.0361C54.5558 87.5107 61.2532 91.9841 70.4551 93.089C70.1775 93.1997 70.0927 93.2825 69.9845 93.2825C68.9798 93.3105 67.9517 93.3373 66.9447 93.3373C66.7474 93.3388 66.5506 93.3572 66.3565 93.392C70.1207 93.7426 73.911 93.0872 77.3329 91.4941C80.7548 89.9009 83.6832 87.4283 85.8133 84.3335C87.9434 81.2387 89.1974 77.6349 89.4449 73.897C89.6923 70.1592 88.9241 66.4239 87.2202 63.08H87.2178Z" fill="#FFD700"/>
<g clip-path="url(#clip0_904_6150)">
<path d="M66.8027 74.1715H69.1777V69.4215H72.7402L67.9902 64.6715L63.2402 69.4215H66.8027V74.1715ZM70.3652 71.4996V73.3308L75.8028 75.359L67.9902 78.2719L60.1777 75.359L65.6152 73.3308V71.4996L58.4902 74.1715V78.9215L67.9902 82.484L77.4902 78.9215V74.1715L70.3652 71.4996Z" fill="white"/>
</g>
<path d="M16.3059 79.996C16.4706 79.9276 16.6202 79.8274 16.7461 79.7012C16.872 79.5749 16.9718 79.4251 17.0398 79.2603C17.1078 79.0954 17.1426 78.9188 17.1423 78.7405C17.142 78.5622 17.1065 78.3857 17.0379 78.2211C17.0247 78.187 17.0097 78.1535 16.9929 78.121C16.8401 77.7841 16.5602 77.5214 16.2143 77.3903C15.8684 77.2591 15.4847 77.2702 15.1469 77.421C15.1219 77.432 15.0969 77.4451 15.0719 77.4571C14.893 77.5255 14.7314 77.6326 14.5987 77.7708C14.466 77.9089 14.3655 78.0747 14.3043 78.2562C14.2432 78.4378 14.2229 78.6307 14.245 78.8209C14.267 79.0112 14.3309 79.1943 14.4319 79.3571C14.548 79.6739 14.785 79.9316 15.091 80.0738C15.3971 80.2159 15.747 80.2307 16.0639 80.115C16.1486 80.0842 16.2298 80.0443 16.3059 79.996Z" fill="#2B265E"/>
<path d="M123.193 84.353C123.939 84.353 124.544 83.7485 124.544 83.003C124.544 82.2574 123.939 81.653 123.193 81.653C122.447 81.653 121.842 82.2574 121.842 83.003C121.842 83.7485 122.447 84.353 123.193 84.353Z" fill="#E7E6E6"/>
<path d="M137.16 68.033C137.906 68.033 138.511 67.4286 138.511 66.683C138.511 65.9374 137.906 65.333 137.16 65.333C136.413 65.333 135.809 65.9374 135.809 66.683C135.809 67.4286 136.413 68.033 137.16 68.033Z" fill="#CCE0FF"/>
<path d="M125.896 47.9471C126.642 47.9471 127.247 47.3427 127.247 46.5971C127.247 45.8515 126.642 45.2471 125.896 45.2471C125.15 45.2471 124.545 45.8515 124.545 46.5971C124.545 47.3427 125.15 47.9471 125.896 47.9471Z" fill="#CCE0FF"/>
<path d="M17.0405 46.81C17.7866 46.81 18.3915 46.2056 18.3915 45.46C18.3915 44.7144 17.7866 44.11 17.0405 44.11C16.2943 44.11 15.6895 44.7144 15.6895 45.46C15.6895 46.2056 16.2943 46.81 17.0405 46.81Z" fill="#E7E6E6"/>
<path d="M1.84123 68.033C2.58737 68.033 3.19223 67.4286 3.19223 66.683C3.19223 65.9374 2.58737 65.333 1.84123 65.333C1.0951 65.333 0.490234 65.9374 0.490234 66.683C0.490234 67.4286 1.0951 68.033 1.84123 68.033Z" fill="#97D3F1"/>
<path d="M32.0723 77.1759C32.2613 77.2469 32.4282 77.3179 32.6172 77.3889C32.45 77.2855 32.2653 77.2134 32.0723 77.1759Z" fill="white"/>
<path d="M35.4258 106.519V102.469C35.4258 101.877 35.3258 101.285 35.3258 100.692V55.4503C35.3133 54.8626 35.3609 54.2752 35.4678 53.6972C35.5016 53.3386 35.6692 53.0058 35.937 52.7649C36.2049 52.5241 36.5536 52.3929 36.9138 52.3973C37.2916 52.4211 37.6482 52.5802 37.9182 52.8456C38.1882 53.111 38.3535 53.4648 38.3838 53.8422C38.4153 54.2361 38.4233 54.6315 38.4078 55.0263V106.141C39.3558 106.376 99.9847 106.448 101.573 106.212V48.3462C101.173 48.3232 100.743 48.2993 100.34 48.2993H88.0108C87.501 48.3109 86.9916 48.2633 86.4928 48.1573C85.8279 48.0293 85.2203 47.695 84.7563 47.2018C84.2924 46.7087 83.9958 46.0817 83.9087 45.4102C83.7753 44.7558 83.7119 44.089 83.7198 43.4212C83.6958 39.2762 83.7198 35.1313 83.7198 30.9863V29.6363C83.1978 29.6123 82.8198 29.5652 82.4198 29.5652H41.6318C39.9718 29.5652 38.9998 30.1573 38.5728 31.4653C38.466 31.8829 38.4182 32.3133 38.4308 32.7442V43.0442C38.4505 43.4003 38.4348 43.7574 38.3838 44.1103C38.3253 44.4222 38.1668 44.7064 37.9322 44.9201C37.6976 45.1338 37.3997 45.2651 37.0838 45.2942C36.7486 45.3547 36.403 45.2855 36.1169 45.1008C35.8308 44.916 35.6256 44.6296 35.5428 44.2993C35.4102 43.805 35.3466 43.2949 35.3538 42.7833C35.3778 39.2303 35.4728 35.6772 35.4728 32.1242C35.5306 30.651 36.1453 29.2548 37.1927 28.2172C38.2401 27.1797 39.6421 26.5782 41.1158 26.5342C44.3638 26.4872 47.5888 26.5113 50.8368 26.5113C62.0521 26.5113 73.2751 26.5032 84.5058 26.4872C84.9154 26.4673 85.3243 26.54 85.7019 26.7C86.0795 26.86 86.4161 27.1032 86.6868 27.4113C92.4008 33.5223 98.1628 39.6112 103.901 45.6962C104.142 45.9519 104.33 46.2536 104.452 46.5833C104.574 46.913 104.629 47.264 104.613 47.6153C104.589 51.0503 104.613 54.4842 104.613 57.9152V106.449C104.918 106.504 105.228 106.537 105.538 106.549H111.584C111.9 106.533 112.217 106.541 112.532 106.572C112.846 106.619 113.137 106.767 113.359 106.993C113.582 107.22 113.724 107.513 113.765 107.828C113.805 108.145 113.731 108.466 113.558 108.735C113.385 109.003 113.122 109.202 112.817 109.296C112.439 109.403 112.047 109.451 111.655 109.438H26.5308C26.2532 109.459 25.9742 109.443 25.7008 109.391C25.3482 109.322 25.0322 109.128 24.8104 108.846C24.5885 108.563 24.4755 108.21 24.4918 107.851C24.5138 107.511 24.6571 107.19 24.8957 106.947C25.1343 106.704 25.4522 106.554 25.7918 106.525C26.0672 106.493 26.3449 106.485 26.6218 106.501H34.0908C34.4508 106.519 34.8538 106.519 35.4258 106.519Z" fill="#0066FF"/>
<path d="M89.9458 72.4265C89.951 69.7151 89.3956 67.0306 88.3128 64.5342C87.2301 62.0377 85.6423 59.7807 83.6447 57.8987C80.1443 54.4558 75.463 52.4016 70.5039 52.1326C65.1023 51.7194 59.7489 53.3823 55.5832 56.7675C51.4174 60.1526 48.7681 64.9926 48.1992 70.2574C47.7844 74.0038 48.4162 77.7901 50.0275 81.2136C50.2435 81.6587 50.3399 82.1503 50.3075 82.6419C50.25 83.0072 50.0694 83.3433 49.7943 83.597C49.5192 83.8506 49.1654 84.0074 48.7888 84.0423C48.4084 84.093 48.0217 84.0142 47.6937 83.8192C47.3658 83.6241 47.1165 83.3246 46.9878 82.9711C46.2605 81.2894 45.6404 79.5654 45.1311 77.8089C43.6725 71.7211 44.7261 65.317 48.0638 59.9826C51.4016 54.6482 56.7551 50.8126 62.9654 49.3061C66.785 48.2823 70.8067 48.2136 74.6606 49.1062C78.5145 49.9987 82.0768 51.8239 85.0198 54.4139C89.3962 57.959 92.2888 62.9503 93.1491 68.441C94.2134 74.6232 92.7654 80.967 89.1136 86.1215C85.4618 91.276 79.8947 94.8338 73.5981 96.0371C67.9369 97.1255 62.064 96.2109 57.0297 93.4566C56.6522 93.3217 56.3247 93.0796 56.089 92.7615C55.8533 92.4434 55.7202 92.0638 55.7068 91.6713C55.6966 91.454 55.7304 91.2369 55.8061 91.0323C55.8817 90.8277 55.9979 90.6397 56.148 90.479C56.298 90.3182 56.479 90.188 56.6806 90.0956C56.8822 90.0032 57.1003 89.9505 57.3227 89.9405C57.5582 89.9305 57.7933 89.9681 58.0133 90.0507C58.3119 90.1717 58.603 90.3094 58.8853 90.4634C61.9253 92.0199 65.3006 92.848 68.7326 92.8793C73.6433 92.9664 78.4262 91.347 82.2287 88.3094C86.0312 85.2719 88.6062 81.0136 89.4949 76.2937C89.7215 74.9803 89.8046 73.689 89.9458 72.4265Z" fill="#0066FF"/>
<path d="M38.552 49.0542C38.5614 49.2519 38.5316 49.4495 38.4646 49.6357C38.3976 49.822 38.2945 49.9931 38.1613 50.1395C38.0281 50.2859 37.8674 50.4047 37.6883 50.489C37.5092 50.5733 37.3152 50.6214 37.1175 50.6307C36.9198 50.6401 36.7222 50.6104 36.536 50.5433C36.3498 50.4763 36.1786 50.3732 36.0322 50.24C35.8858 50.1068 35.7671 49.9461 35.6828 49.767C35.5985 49.5879 35.5503 49.394 35.541 49.1963C35.5466 48.8021 35.6932 48.423 35.9543 48.1277C36.2153 47.8323 36.5736 47.6402 36.964 47.5862C37.3644 47.5878 37.7496 47.7396 38.0436 48.0114C38.3376 48.2831 38.519 48.6552 38.552 49.0542Z" fill="#0066FF"/>
<path d="M54.4894 87.4545C54.505 87.9771 54.3109 88.4845 53.9495 88.8651C53.5881 89.2456 53.0891 89.4683 52.5623 89.484H52.5056C52.0018 89.454 51.5245 89.2501 51.1565 88.9076C50.7884 88.565 50.5529 88.1055 50.4907 87.6087C50.4793 87.0798 50.6707 86.5663 51.0261 86.172C51.3816 85.7776 51.8746 85.5317 52.4057 85.484C52.9424 85.4818 53.4591 85.6857 53.8475 86.0531C54.236 86.4204 54.466 86.9226 54.4894 87.4545Z" fill="#0066FF"/>
<path d="M118.293 107.893C118.271 108.29 118.101 108.664 117.815 108.941C117.529 109.217 117.15 109.376 116.752 109.384C116.369 109.353 116.012 109.179 115.752 108.896C115.493 108.612 115.351 108.241 115.354 107.857C115.357 107.473 115.505 107.104 115.769 106.825C116.033 106.546 116.393 106.377 116.776 106.352C117.175 106.376 117.55 106.547 117.83 106.831C118.111 107.116 118.275 107.494 118.293 107.893Z" fill="#0066FF"/>
<defs>
<clipPath id="clip0_904_6150">
<rect width="19" height="19" fill="white" transform="translate(58.4902 63.484)"/>
</clipPath>
</defs>
</svg>
