<svg width="31" height="31" viewBox="0 0 31 31" fill="none" xmlns="http://www.w3.org/2000/svg">
<path d="M0.00390625 0.431641V22.9316H7.50391V30.4316H30.0039V7.93164H22.5039V0.431641H0.00390625ZM2.50391 2.93164H20.0039V8.63539L8.20641 20.4316H2.50391V2.93164ZM8.75391 5.43164V6.68164H5.00391V9.18164H11.1764C11.0139 10.6166 10.5752 11.7504 9.84766 12.5416C9.4527 12.4139 9.07293 12.2433 8.71516 12.0329C7.83641 11.5104 7.50391 10.9541 7.50391 10.4316H5.00391C5.00391 11.9204 5.92141 13.1616 7.15266 13.9866C6.44517 14.1264 5.725 14.1918 5.00391 14.1816V16.6816C7.22016 16.6816 9.06641 16.1741 10.4727 15.2366C11.1264 15.3491 11.7914 15.4316 12.5039 15.4316V13.0879C13.1827 11.9504 13.5439 10.6216 13.6764 9.18164H15.0039V6.68164H11.2539V5.43164H8.75391ZM21.8014 10.4316H27.5039V27.9316H10.0039V22.2279L21.8014 10.4316ZM20.0039 12.7366L18.8314 16.2916L16.3314 23.7916L16.2539 23.9866V25.4316H18.7539V24.3379L18.7927 24.1816H21.2152L21.2539 24.3379V25.4316H23.7539V23.9866L23.6752 23.7904L21.1752 16.2904L20.0039 12.7366ZM20.0039 20.5879L20.3552 21.6816H19.6527L20.0039 20.5879Z" fill="#0066FF"/>
</svg>
