<svg width="38" height="39" viewBox="0 0 38 39" fill="none" xmlns="http://www.w3.org/2000/svg">
<circle cx="19" cy="19.8999" r="17" stroke="#0066FF" stroke-width="4"/>
<path d="M19.7933 17.6719C19.661 17.6719 19.661 17.523 19.5286 17.523V12.9072C21.1168 13.0561 22.4404 13.8006 22.4404 13.8006L23.6315 11.1204C23.4992 11.1204 21.6463 9.92923 19.5286 9.92923V7.54688H18.2051V9.92923C17.1463 10.227 16.3521 10.6737 15.558 11.2693C14.7639 12.1627 14.2345 13.3539 14.2345 14.6939C14.2345 15.7362 14.4992 18.1186 18.2051 20.0542V25.8612C17.0139 25.5634 15.558 24.8189 15.0286 24.5211L13.7051 27.0524C13.9698 27.2013 16.0874 28.5414 18.2051 28.8392V31.3704H19.5286V28.8392C22.5727 28.3925 24.2933 25.7123 24.2933 23.1811C24.2933 20.9476 22.9698 19.1608 19.7933 17.6719ZM18.2051 16.7785C17.1463 16.034 16.8815 15.2895 16.8815 14.8428C16.8815 14.2472 17.0139 13.8006 17.411 13.5028L18.2051 13.0561V16.7785ZM19.5286 25.8612V20.7987C20.9845 21.5432 21.6463 22.4366 21.6463 23.1811C21.6463 24.0744 21.2492 25.5634 19.5286 25.8612Z" fill="#0066FF"/>
</svg>
