<svg width="139" height="140" viewBox="0 0 139 140" fill="none" xmlns="http://www.w3.org/2000/svg">
<path d="M68.1102 115.651C94.3398 115.651 115.603 94.4095 115.603 68.2069C115.603 42.0043 94.3398 20.7629 68.1102 20.7629C41.8805 20.7629 20.6172 42.0043 20.6172 68.2069C20.6172 94.4095 41.8805 115.651 68.1102 115.651Z" fill="#F0F1F8"/>
<path d="M15.4329 85.2748C15.5975 85.2064 15.7471 85.1063 15.873 84.98C15.9989 84.8538 16.0987 84.7039 16.1667 84.5391C16.2347 84.3742 16.2696 84.1976 16.2692 84.0193C16.2689 83.841 16.2334 83.6645 16.1649 83.4999C16.1516 83.4658 16.1366 83.4323 16.1199 83.3998C15.9671 83.0629 15.6871 82.8003 15.3413 82.6691C14.9954 82.5379 14.6116 82.549 14.2739 82.6999C14.2489 82.7109 14.2239 82.7239 14.1989 82.7359C14.0199 82.8043 13.8584 82.9114 13.7257 83.0496C13.593 83.1878 13.4924 83.3535 13.4313 83.5351C13.3701 83.7166 13.3499 83.9095 13.3719 84.0998C13.394 84.29 13.4578 84.4731 13.5589 84.6359C13.6749 84.9527 13.912 85.2104 14.218 85.3526C14.524 85.4947 14.8739 85.5096 15.1909 85.3938C15.2756 85.363 15.3567 85.3231 15.4329 85.2748Z" fill="#2B265E"/>
<path d="M5.43287 71.2748C5.59754 71.2064 5.74711 71.1063 5.87303 70.98C5.99895 70.8538 6.09875 70.7039 6.16673 70.5391C6.23471 70.3742 6.26956 70.1976 6.26924 70.0193C6.26892 69.841 6.23344 69.6645 6.16487 69.4999C6.15162 69.4658 6.13661 69.4323 6.11988 69.3998C5.96709 69.0629 5.68715 68.8003 5.34126 68.6691C4.99537 68.5379 4.61163 68.549 4.27388 68.6999C4.24888 68.7109 4.22386 68.7239 4.19886 68.7359C4.01994 68.8043 3.85835 68.9114 3.72566 69.0496C3.59296 69.1878 3.49244 69.3535 3.43129 69.5351C3.37013 69.7166 3.34987 69.9095 3.37193 70.0998C3.39398 70.29 3.45782 70.4731 3.55888 70.6359C3.67491 70.9527 3.91198 71.2104 4.218 71.3526C4.52401 71.4947 4.87393 71.5096 5.19087 71.3938C5.27558 71.363 5.35673 71.3231 5.43287 71.2748Z" fill="#97D3F1"/>
<path d="M122.32 89.6319C123.066 89.6319 123.671 89.0275 123.671 88.2819C123.671 87.5363 123.066 86.9319 122.32 86.9319C121.574 86.9319 120.969 87.5363 120.969 88.2819C120.969 89.0275 121.574 89.6319 122.32 89.6319Z" fill="#E7E6E6"/>
<path d="M136.287 73.3121C137.033 73.3121 137.638 72.7076 137.638 71.9621C137.638 71.2165 137.033 70.6121 136.287 70.6121C135.54 70.6121 134.936 71.2165 134.936 71.9621C134.936 72.7076 135.54 73.3121 136.287 73.3121Z" fill="#CCE0FF"/>
<path d="M125.023 53.2259C125.769 53.2259 126.374 52.6215 126.374 51.8759C126.374 51.1303 125.769 50.5259 125.023 50.5259C124.277 50.5259 123.672 51.1303 123.672 51.8759C123.672 52.6215 124.277 53.2259 125.023 53.2259Z" fill="#CCE0FF"/>
<path d="M16.1674 52.0889C16.9135 52.0889 17.5184 51.4845 17.5184 50.7389C17.5184 49.9933 16.9135 49.3889 16.1674 49.3889C15.4213 49.3889 14.8164 49.9933 14.8164 50.7389C14.8164 51.4845 15.4213 52.0889 16.1674 52.0889Z" fill="#E7E6E6"/>
<g clip-path="url(#clip0_904_6172)">
<path d="M68.0067 80.6473C69.9934 81.3546 72.5241 82.2196 75.4147 82.8219C74.2919 90.6049 71.0205 99.8939 62.2234 106.313C51.267 114.307 36.0786 112.387 27.2949 102.28C26.8148 101.706 26.3346 101.132 25.9238 100.569L38.2398 91.5825C38.4745 91.9043 38.7386 92.2662 39.0533 92.5296C39.2694 92.7417 39.4854 92.9538 39.7015 93.1659C39.7015 93.1659 39.7015 93.1659 39.7308 93.2061C39.9468 93.4182 40.2029 93.6012 40.4589 93.7841C40.7149 93.967 40.9416 94.1098 41.1683 94.2525C41.227 94.3329 41.2963 94.3439 41.395 94.3952C41.5924 94.4977 41.7897 94.6002 41.9871 94.7027C42.2137 94.8454 42.4804 94.959 42.7471 95.0725C42.7764 95.1127 42.8458 95.1238 42.9151 95.1348C43.1524 95.2082 43.4191 95.3217 43.6564 95.395C43.8938 95.4684 44.1018 95.5015 44.2991 95.604C44.4378 95.6261 44.6058 95.6883 44.7444 95.7104C44.9124 95.7727 45.0911 95.7656 45.2591 95.8279C45.3977 95.85 45.6057 95.8831 45.7844 95.876C45.9924 95.9091 46.171 95.902 46.379 95.9351C46.6563 95.9793 46.9443 95.954 47.2323 95.9288C47.4509 95.8925 47.6589 95.9256 47.8775 95.8894C47.9868 95.8712 48.0962 95.8531 48.2348 95.8752C48.4534 95.8389 48.6721 95.8026 48.8907 95.7663C48.96 95.7774 49.04 95.719 49.1093 95.7301C49.368 95.6646 49.6266 95.5991 49.8852 95.5337C50.1838 95.4391 50.4424 95.3736 50.7117 95.2388C50.7517 95.2096 50.821 95.2206 50.861 95.1914C51.0903 95.0858 51.3196 94.9801 51.5088 94.9036C51.5488 94.8744 51.5888 94.8453 51.6582 94.8563C51.9274 94.7215 52.1967 94.5866 52.3966 94.4407C52.6659 94.3059 52.9458 94.1016 53.1857 93.9266C53.4256 93.7515 53.6655 93.5765 53.8761 93.3612C54.0361 93.2445 54.156 93.1569 54.2866 93C54.3666 92.9417 54.4066 92.9125 54.4866 92.8541C54.7771 92.5805 55.0677 92.3069 55.3289 91.993C55.3689 91.9639 55.4089 91.9347 55.4195 91.8653C56.0219 91.1793 56.5949 90.453 57.0587 89.7449C57.0987 89.7157 57.1493 89.6171 57.1599 89.5478C57.1999 89.5186 57.2106 89.4492 57.2505 89.42C57.4318 89.1645 57.573 88.9382 57.7249 88.6425C57.7649 88.6133 57.7755 88.5439 57.8262 88.4454C57.8262 88.4454 57.8262 88.4454 57.8662 88.4162C58.0687 88.0219 58.2712 87.6276 58.4444 87.1931C58.4844 87.164 58.455 87.1238 58.495 87.0946C58.5456 86.996 58.5563 86.9266 58.5669 86.8572C58.6682 86.6601 58.7401 86.4227 58.8414 86.2256C58.852 86.1562 58.8627 86.0868 58.9426 86.0285C58.9533 85.9591 59.0039 85.8605 59.0146 85.7911C59.3103 85.0207 59.5367 84.2393 59.7337 83.4176C59.755 83.2788 59.7657 83.2094 59.8163 83.1109C59.8589 82.8333 59.9414 82.5265 59.984 82.249C60.0053 82.1102 60.0559 82.0116 60.0372 81.902C60.1304 81.5259 60.1836 81.1789 60.2369 80.832C60.2582 80.6932 60.2794 80.5544 60.3007 80.4156C60.3327 80.2074 60.3646 79.9993 60.3672 79.7509C60.3991 79.5427 60.3911 79.3637 60.4523 79.1957C60.4736 79.057 60.4949 78.9182 60.5162 78.7794C60.5507 78.3228 60.5852 77.8663 60.6197 77.4097C61.3611 77.6699 61.9638 77.908 62.4278 78.1241C63.0305 78.3622 63.3558 78.5562 63.3558 78.5562C63.6412 78.7793 65.3187 79.6506 68.0067 80.6473Z" fill="#FFD700"/>
<path d="M68.006 80.6474C67.3041 87.0755 64.7815 94.9555 57.7039 100.12C53.6652 103.067 48.7433 104.131 44.0982 103.392C40.1464 102.762 36.3569 100.844 33.5322 97.7286C33.0414 97.2239 32.5612 96.6499 32.1211 96.0466L38.2791 91.5534C38.5138 91.8751 38.7779 92.2371 39.0926 92.5004C39.3087 92.7126 39.5247 92.9247 39.7408 93.1368C39.7408 93.1368 39.7408 93.1368 39.7701 93.177C39.9861 93.3891 40.2422 93.572 40.4982 93.755C40.7542 93.9379 40.9809 94.0806 41.2076 94.2234C41.2663 94.3038 41.3356 94.3148 41.4343 94.3661C41.6317 94.4686 41.829 94.5711 42.0263 94.6736C42.253 94.8163 42.5197 94.9299 42.7864 95.0434C42.8157 95.0836 42.8851 95.0947 42.9544 95.1057C43.1917 95.179 43.4584 95.2926 43.6957 95.3659C43.9331 95.4392 44.1411 95.4723 44.3384 95.5749C44.4771 95.5969 44.6451 95.6592 44.7837 95.6813C44.9517 95.7436 45.1304 95.7365 45.2984 95.7988C45.437 95.8209 45.645 95.854 45.8237 95.8469C46.0317 95.88 46.2103 95.8729 46.4183 95.906C46.6956 95.9502 46.9836 95.9249 47.2716 95.8997C47.4902 95.8634 47.6982 95.8965 47.9168 95.8602C48.0261 95.8421 48.1354 95.824 48.2741 95.846C48.4927 95.8098 48.7114 95.7735 48.93 95.7372C48.9993 95.7482 49.0793 95.6899 49.1486 95.7009C49.4073 95.6355 49.6659 95.57 49.9245 95.5046C50.2231 95.4099 50.4817 95.3445 50.751 95.2096C50.791 95.1805 50.8603 95.1915 50.9003 95.1623C51.1296 95.0567 51.3588 94.951 51.5481 94.8745C51.5881 94.8453 51.6281 94.8161 51.6974 94.8272C51.9667 94.6923 52.236 94.5575 52.4359 94.4116C52.7052 94.2768 52.9851 94.0725 53.225 93.8975C53.4649 93.7224 53.7048 93.5473 53.9154 93.3321C54.0754 93.2154 54.1953 93.1278 54.3259 92.9709C54.4059 92.9125 54.4459 92.8834 54.5259 92.825C54.8164 92.5514 55.107 92.2778 55.3682 91.9639C55.4082 91.9347 55.4481 91.9056 55.4588 91.8362C56.0612 91.1501 56.6342 90.4239 57.098 89.7158C57.1379 89.6866 57.1886 89.588 57.1992 89.5186C57.2392 89.4894 57.2499 89.4201 57.2898 89.3909C57.4711 89.1354 57.583 88.8689 57.7642 88.6134C57.8042 88.5842 57.8148 88.5148 57.8655 88.4162C57.8655 88.4162 57.8655 88.4162 57.9055 88.3871C58.108 87.9928 58.3105 87.5985 58.4837 87.164C58.5237 87.1348 58.4943 87.0946 58.5343 87.0655C58.5849 86.9669 58.5956 86.8975 58.6062 86.8281C58.7075 86.631 58.7794 86.3936 58.8807 86.1965C58.8913 86.1271 58.902 86.0577 58.9819 85.9993C58.9926 85.9299 59.0432 85.8314 59.0538 85.762C59.3496 84.9916 59.576 84.2101 59.773 83.3885C59.7943 83.2497 59.805 83.1803 59.8556 83.0817C59.8982 82.8042 59.9807 82.4974 60.0233 82.2199C60.0446 82.0811 60.0952 81.9825 60.0765 81.8729C60.1697 81.4968 60.2229 81.1498 60.2762 80.8028C60.2974 80.6641 60.3187 80.5253 60.34 80.3865C60.372 80.1783 60.4039 79.9701 60.4065 79.7218C60.4384 79.5136 60.4303 79.3346 60.4916 79.1666C60.5129 79.0278 60.5342 78.8891 60.5555 78.7503C60.59 78.2937 60.6245 77.8371 60.659 77.3806C61.4004 77.6408 62.0031 77.8789 62.4671 78.095C63.0698 78.3331 63.3951 78.5271 63.3951 78.5271C63.6405 78.7794 65.318 79.6507 68.006 80.6474Z" fill="#FFD700"/>
<path d="M109.788 39.316L97.5124 48.2732C97.0723 47.67 96.5521 47.1251 96.0214 46.6497C94.4291 45.2232 92.5436 44.3188 90.4931 44.0279C90.3544 44.0058 90.1464 43.9727 89.9678 43.9798C89.6905 43.9356 89.4425 43.9317 89.1945 43.9278C88.9465 43.9238 88.6986 43.9199 88.4506 43.9159C88.2026 43.912 87.9146 43.9373 87.696 43.9735C87.1894 44.035 86.6828 44.0966 86.1656 44.2275C85.6483 44.3584 85.1604 44.5295 84.7019 44.7408C83.9447 45.0468 83.2462 45.4332 82.5665 45.9292C82.0466 46.3085 81.5961 46.6988 81.1456 47.0892C80.9351 47.3044 80.7245 47.5197 80.5139 47.735C80.3033 47.9503 80.0928 48.1655 79.9115 48.421C79.7009 48.6363 79.5197 48.8918 79.3785 49.1181C79.1972 49.3736 79.056 49.5999 78.8747 49.8554C78.7335 50.0817 78.5523 50.3372 78.411 50.5635C78.2698 50.7898 78.0885 51.0453 77.9766 51.3119C77.7848 51.6367 77.6222 52.0018 77.4597 52.3669C77.2572 52.7612 77.0946 53.1263 76.9614 53.5316C76.9002 53.6996 76.8389 53.8675 76.8176 54.0063C76.7776 54.0355 76.807 54.0757 76.767 54.1049C76.6844 54.4116 76.5725 54.6782 76.4899 54.9849C76.3567 55.3902 76.2236 55.7955 76.1197 56.2411C76.0371 56.5478 75.9546 56.8545 75.912 57.1321C75.912 57.1321 75.9014 57.2015 75.8907 57.2709C75.8082 57.5776 75.7656 57.8552 75.683 58.1619C75.4327 59.3306 75.3211 60.5213 75.2308 61.5732C75.2176 61.891 75.175 62.1685 75.1618 62.4863C74.4204 62.2261 73.7884 61.9478 73.3537 61.7719C72.751 61.5338 72.4257 61.3398 72.4257 61.3398C72.199 61.1971 70.4816 60.355 67.7935 59.3583C65.8068 58.651 63.2655 57.8554 60.3856 57.1837C61.4203 49.2801 64.7317 39.9619 73.5288 33.543C84.4852 25.5486 99.6736 27.4692 108.457 37.5757C108.908 38.1095 109.348 38.7128 109.788 39.316Z" fill="#FFD700"/>
<path d="M103.671 43.7801L97.513 48.2733C97.0729 47.67 96.5528 47.1252 96.022 46.6497C94.4297 45.2233 92.5443 44.3188 90.4937 44.0279C90.3551 44.0058 90.1471 43.9727 89.9684 43.9798C89.6911 43.9357 89.4431 43.9317 89.1951 43.9278C88.9472 43.9239 88.6992 43.9199 88.4512 43.916C88.2032 43.912 87.9153 43.9373 87.6966 43.9736C87.19 44.0351 86.6834 44.0966 86.1662 44.2275C85.649 44.3584 85.1611 44.5295 84.7025 44.7409C83.9453 45.0468 83.2469 45.4332 82.5671 45.9292C82.0473 46.3085 81.5968 46.6989 81.1463 47.0892C80.9064 47.2643 80.7251 47.5198 80.5145 47.735C80.304 47.9503 80.0934 48.1656 79.9121 48.4211C79.7016 48.6363 79.5203 48.8918 79.3791 49.1181C79.1979 49.3736 79.0273 49.5597 78.8754 49.8554C78.6941 50.1109 78.5529 50.3372 78.4116 50.5636C78.2704 50.7899 78.0892 51.0454 77.9773 51.3119C77.7854 51.6368 77.6228 52.0019 77.4603 52.367C77.2578 52.7612 77.0953 53.1263 76.9621 53.5316C76.9008 53.6996 76.8395 53.8676 76.8182 54.0064C76.7782 54.0355 76.8076 54.0757 76.7676 54.1049C76.685 54.4117 76.5731 54.6782 76.4906 54.9849C76.3574 55.3902 76.2242 55.7956 76.1203 56.2411C76.0378 56.5478 75.9952 56.8254 75.9126 57.1321C75.9126 57.1321 75.902 57.2015 75.8913 57.2709C75.8088 57.5777 75.7662 57.8552 75.6836 58.162C75.4334 59.3306 75.3218 60.5213 75.2314 61.5732C75.2182 61.891 75.1756 62.1686 75.1624 62.4863C74.4211 62.2261 73.789 61.9478 73.3544 61.7719C72.7517 61.5338 72.4263 61.3398 72.4263 61.3398C72.1996 61.1971 70.4822 60.355 67.7941 59.3583C68.496 52.9302 70.9786 45.0794 78.0963 39.886C85.6538 34.3716 96.0585 35.5305 102.308 42.248C102.751 42.6028 103.231 43.1768 103.671 43.7801Z" fill="#FFD700"/>
<path d="M52.5566 73.4956C51.466 73.4286 50.3354 73.3907 49.1836 73.4917C50.3648 73.431 51.466 73.4286 52.5566 73.4956Z" fill="url(#paint0_linear_904_6172)"/>
<path d="M59.9461 66.9948C64.5273 68.1507 67.6555 69.7506 67.8822 69.8933L75.0798 64.6415C72.8158 63.89 71.4051 63.1323 71.3357 63.1212C70.1517 62.5062 48.7076 51.5924 31.4733 64.1676C30.6336 64.7803 29.8232 65.4332 29.1115 66.1374L32.1888 66.9117C32.7034 67.0292 33.1168 67.3438 33.4396 67.7862L35.5523 70.6817C35.7123 70.5649 35.8322 70.4774 35.9922 70.3607C43.9495 64.5545 53.4155 65.3508 59.9461 66.9948Z" fill="url(#paint1_linear_904_6172)"/>
<path d="M67.8816 69.8933C67.6549 69.7506 64.5267 68.1507 59.9455 66.9948C53.3856 65.3106 43.9889 64.5254 36.0315 70.3315C35.8716 70.4482 35.7516 70.5358 35.5917 70.6525L39.7584 76.363C39.8758 76.5238 39.9932 76.6847 40.0306 76.9039C40.1905 76.7872 40.3505 76.6705 40.5104 76.5538C41.9499 75.5034 43.4855 74.7527 45.0879 74.2614C45.5358 74.1195 45.9837 73.9775 46.421 73.905C46.8982 73.8033 47.3355 73.7307 47.8128 73.629C48.25 73.5564 48.7166 73.5241 49.1833 73.4917C50.3351 73.3908 51.4657 73.4286 52.5563 73.4956C53.4388 73.5295 54.2708 73.662 55.1028 73.7944C57.1827 74.1256 59.092 74.6428 60.5747 75.1632L67.8816 69.8933Z" fill="url(#paint2_linear_904_6172)"/>
<path d="M67.8816 69.8933C67.6549 69.7506 64.5267 68.1507 59.9455 66.9948C53.3856 65.3106 43.9889 64.5254 36.0315 70.3315C35.8716 70.4482 35.7516 70.5358 35.5917 70.6525L39.7584 76.363C39.8758 76.5238 39.9932 76.6847 40.0306 76.9039C40.1905 76.7872 40.3505 76.6705 40.5104 76.5538C41.9499 75.5034 43.4855 74.7527 45.0879 74.2614C45.5358 74.1195 45.9837 73.9775 46.421 73.905C46.8982 73.8033 47.3355 73.7307 47.8128 73.629C48.25 73.5564 48.7166 73.5241 49.1833 73.4917C50.3351 73.3908 51.4657 73.4286 52.5563 73.4956C53.4388 73.5295 54.2708 73.662 55.1028 73.7944C57.1827 74.1256 59.092 74.6428 60.5747 75.1632L67.8816 69.8933Z" fill="url(#paint3_linear_904_6172)"/>
<path d="M103.535 72.904C103.02 72.7865 102.607 72.4719 102.284 72.0296L100.142 69.0939C99.9819 69.2106 99.8619 69.2981 99.702 69.4148C91.7446 75.221 82.3479 74.4358 75.7881 72.7516C71.0388 71.5334 67.8519 69.853 67.8519 69.853L60.6543 75.1049C62.9183 75.8563 64.3291 76.6141 64.3984 76.6251C65.5825 77.2401 87.0265 88.1539 104.261 75.5787C105.101 74.966 105.911 74.3131 106.623 73.6089L103.535 72.904Z" fill="url(#paint4_linear_904_6172)"/>
<path d="M67.8828 69.8933C67.8828 69.8933 71.0697 71.5736 75.8189 72.7918C82.3788 74.476 91.7755 75.2612 99.7329 69.4551C99.8928 69.3384 100.013 69.2508 100.173 69.1341L96.006 63.4236C95.8886 63.2627 95.8112 63.0727 95.7338 62.8827C95.5739 62.9994 95.414 63.1161 95.254 63.2328C94.8541 63.5246 94.4943 63.7871 94.105 64.0095C93.7158 64.2319 93.3266 64.4543 92.908 64.6364C92.7187 64.7129 92.4894 64.8186 92.3002 64.8951C92.1109 64.9716 91.8816 65.0772 91.6923 65.1537C91.503 65.2302 91.3137 65.3067 91.0951 65.343C90.8365 65.4084 90.6072 65.5141 90.3886 65.5504C90.2392 65.5977 90.05 65.6742 89.8713 65.6813C89.3941 65.783 88.9861 65.8958 88.5089 65.9975C88.2902 66.0338 88.0716 66.0701 87.853 66.1064C87.6343 66.1426 87.4157 66.1789 87.2371 66.186C86.6211 66.2657 85.9759 66.3051 85.3413 66.2752C84.944 66.3185 84.5574 66.2925 84.1707 66.2665C83.7841 66.2405 83.3975 66.2145 83.0108 66.1885C82.2375 66.1364 81.5043 66.0552 80.7416 65.9338C80.4643 65.8897 80.187 65.8455 79.9097 65.8014C78.771 65.5845 77.6724 65.3385 76.6537 65.0342C76.1098 64.8765 75.6351 64.7298 75.1604 64.5831L67.8828 69.8933Z" fill="url(#paint5_linear_904_6172)"/>
<path d="M67.8828 69.8933C67.8828 69.8933 71.0697 71.5736 75.8189 72.7918C82.3788 74.476 91.7755 75.2612 99.7329 69.4551C99.8928 69.3384 100.013 69.2508 100.173 69.1341L96.006 63.4236C95.8886 63.2627 95.8112 63.0727 95.7338 62.8827C95.5739 62.9994 95.414 63.1161 95.254 63.2328C94.8541 63.5246 94.4943 63.7871 94.105 64.0095C93.7158 64.2319 93.3266 64.4543 92.908 64.6364C92.7187 64.7129 92.4894 64.8186 92.3002 64.8951C92.1109 64.9716 91.8816 65.0772 91.6923 65.1537C91.503 65.2302 91.3137 65.3067 91.0951 65.343C90.8365 65.4084 90.6072 65.5141 90.3886 65.5504C90.2392 65.5977 90.05 65.6742 89.8713 65.6813C89.3941 65.783 88.9861 65.8958 88.5089 65.9975C88.2902 66.0338 88.0716 66.0701 87.853 66.1064C87.6343 66.1426 87.4157 66.1789 87.2371 66.186C86.6211 66.2657 85.9759 66.3051 85.3413 66.2752C84.944 66.3185 84.5574 66.2925 84.1707 66.2665C83.7841 66.2405 83.3975 66.2145 83.0108 66.1885C82.2375 66.1364 81.5043 66.0552 80.7416 65.9338C80.4643 65.8897 80.187 65.8455 79.9097 65.8014C78.771 65.5845 77.6724 65.3385 76.6537 65.0342C76.1098 64.8765 75.6351 64.7298 75.1604 64.5831L67.8828 69.8933Z" fill="url(#paint6_linear_904_6172)"/>
<path d="M73.9668 33.2223L83.0045 45.6085C87.739 42.5236 94.1361 43.6488 97.5399 48.3137L109.816 39.3564C101.424 27.855 85.4591 25.2066 73.9668 33.2223Z" fill="#0066FF"/>
<path d="M97.7048 46.7759C94.0772 42.6441 88.0961 41.5852 83.2681 44.122L75.5215 33.5052C86.137 26.8072 100.398 29.2199 108.261 39.0733L97.7048 46.7759Z" fill="#003D99"/>
<path d="M103.114 42.7676C102.983 42.9246 102.823 43.0413 102.663 43.158C101.624 43.9166 100.176 43.8638 99.213 42.9641C93.9054 38.2093 85.9247 37.685 80.0598 41.6562L76.8027 37.1924C84.7469 31.704 95.6127 32.4032 102.857 38.888C104.017 39.8902 104.137 41.6511 103.114 42.7676Z" fill="#0052CC"/>
<path d="M104.044 70.7458L115.156 73.5457L117.115 72.1161L108.87 60.8157L112.092 55.3219L118.267 53.9591L126.512 65.2595L128.471 63.8299L129.196 52.3937L122.916 43.7877L111.754 42.0105L109.788 39.3161L97.5121 48.2734L99.4781 50.9678L97.7645 62.1398L104.044 70.7458Z" fill="#0066FF"/>
<path d="M126.745 63.7329L119.146 53.3173C118.881 52.9553 118.447 52.7795 118.039 52.8923L111.864 54.255C111.715 54.3023 111.565 54.3496 111.445 54.4371C111.325 54.5247 111.235 54.6524 111.144 54.7801L107.962 60.2448C107.76 60.6391 107.794 61.1067 108.029 61.4284L115.6 71.8038L114.92 72.2998L104.728 69.7531L98.9475 61.8307L100.557 51.1042C100.6 50.8266 100.504 50.527 100.328 50.2857L97.7455 46.7468L108.262 39.0733L110.844 42.6122C111.02 42.8535 111.276 43.0364 111.554 43.0806L122.3 44.7915L128.08 52.7139L127.396 63.1967L126.716 63.6927L126.745 63.7329Z" fill="#3385FF"/>
<path d="M61.8246 106.605L52.7869 94.2184C48.0524 97.3033 41.6553 96.1781 38.2515 91.5132L25.9355 100.5C34.3277 112.001 50.2923 114.65 61.8246 106.605Z" fill="url(#paint7_linear_904_6172)"/>
<path d="M38.0468 93.0801C41.6744 97.2119 47.6555 98.2708 52.4835 95.734L60.2301 106.351C49.6146 113.049 35.3539 110.636 27.4902 100.783L38.0468 93.0801Z" fill="#003D99"/>
<path d="M32.6367 97.0883C32.7673 96.9314 32.9273 96.8147 33.0872 96.698C34.1269 95.9394 35.5748 95.9922 36.5376 96.8919C41.8453 101.647 49.826 102.171 55.6908 98.1997L58.9479 102.664C51.0038 108.152 40.1379 107.453 32.8539 100.997C31.7337 99.9657 31.6132 98.2049 32.6367 97.0883Z" fill="#0052CC"/>
<path d="M31.6794 69.0699L20.5969 66.3102L18.6376 67.7399L26.883 79.0403L23.7011 84.5049L17.4861 85.8968L9.24069 74.5964L7.28133 76.0261L6.52768 87.4221L12.8365 96.0683L23.9986 97.8454L25.9646 100.54L38.2405 91.5826L36.2745 88.8882L37.9882 77.7161L31.6794 69.0699Z" fill="#0052CC"/>
<path d="M9.00666 76.123L16.5772 86.4985C16.8413 86.8604 17.276 87.0362 17.6839 86.9235L23.8588 85.5607C24.0082 85.5134 24.1575 85.4661 24.2774 85.3786C24.3974 85.2911 24.488 85.1633 24.5786 85.0356L27.7606 79.5709C27.9631 79.1767 27.9283 78.709 27.6935 78.3873L20.123 68.0119L20.8028 67.5159L30.9946 70.0627L36.7752 77.985L35.2347 88.7226C35.1922 89.0001 35.2882 89.2998 35.4643 89.5411L38.0465 93.08L27.49 100.783L24.9078 97.2437C24.7317 97.0024 24.4757 96.8195 24.1984 96.7753L13.4522 95.0644L7.67161 87.1421L8.32688 76.619L9.00666 76.123Z" fill="#0066FF"/>
</g>
<defs>
<linearGradient id="paint0_linear_904_6172" x1="30.8468" y1="66.5422" x2="112.04" y2="94.2334" gradientUnits="userSpaceOnUse">
<stop stop-color="#DC6E04"/>
<stop offset="0.3062" stop-color="#FFBB54"/>
<stop offset="1" stop-color="#C35400"/>
</linearGradient>
<linearGradient id="paint1_linear_904_6172" x1="33.1903" y1="59.6718" x2="114.383" y2="87.363" gradientUnits="userSpaceOnUse">
<stop stop-color="#DC6E04"/>
<stop offset="0.3062" stop-color="#FFBB54"/>
<stop offset="1" stop-color="#C35400"/>
</linearGradient>
<linearGradient id="paint2_linear_904_6172" x1="31.2443" y1="65.3757" x2="112.438" y2="93.0669" gradientUnits="userSpaceOnUse">
<stop stop-color="#DC6E04"/>
<stop offset="0.3062" stop-color="#FFBB54"/>
<stop offset="1" stop-color="#C35400"/>
</linearGradient>
<linearGradient id="paint3_linear_904_6172" x1="119.993" y1="102.304" x2="28.2867" y2="62.6864" gradientUnits="userSpaceOnUse">
<stop stop-color="#DC6E04"/>
<stop offset="0.3062" stop-color="#FFBB54"/>
<stop offset="1" stop-color="#C35400"/>
</linearGradient>
<linearGradient id="paint4_linear_904_6172" x1="125.76" y1="92.0185" x2="31.8751" y2="51.4593" gradientUnits="userSpaceOnUse">
<stop stop-color="#DC6E04"/>
<stop offset="0.3062" stop-color="#FFBB54"/>
<stop offset="1" stop-color="#C35400"/>
</linearGradient>
<linearGradient id="paint5_linear_904_6172" x1="128.064" y1="86.6907" x2="34.1787" y2="46.1316" gradientUnits="userSpaceOnUse">
<stop stop-color="#DC6E04"/>
<stop offset="0.3062" stop-color="#FFBB54"/>
<stop offset="1" stop-color="#C35400"/>
</linearGradient>
<linearGradient id="paint6_linear_904_6172" x1="36.8105" y1="50.948" x2="115.889" y2="77.9181" gradientUnits="userSpaceOnUse">
<stop stop-color="#DC6E04"/>
<stop offset="0.3062" stop-color="#FFBB54"/>
<stop offset="1" stop-color="#C35400"/>
</linearGradient>
<linearGradient id="paint7_linear_904_6172" x1="42.113" y1="101.083" x2="1.88415" y2="90.354" gradientUnits="userSpaceOnUse">
<stop stop-color="#3E2177"/>
<stop offset="0.3104" stop-color="#5F52A0"/>
<stop offset="1" stop-color="#2C155D"/>
</linearGradient>
<clipPath id="clip0_904_6172">
<rect width="119.74" height="61.5805" fill="white" transform="translate(1.36328 80.3442) rotate(-36.1167)"/>
</clipPath>
</defs>
</svg>
