<svg width="36" height="36" viewBox="0 0 36 36" fill="none" xmlns="http://www.w3.org/2000/svg">
<circle cx="18" cy="18" r="18" fill="#FFD700"/>
<path d="M13.0497 19.0089C12.2592 17.8769 10.7007 17.6 9.56869 18.3905C8.43666 19.181 8.15979 20.7395 8.95028 21.8716L13.0497 19.0089ZM15.6921 24.7618L17.7844 26.1301L15.6921 24.7618ZM8.95028 21.8716L11.9856 26.2183L16.085 23.3557L13.0497 19.0089L8.95028 21.8716ZM17.7844 26.1301L28.0923 10.3683L23.9077 7.63168L13.5998 23.3935L17.7844 26.1301ZM11.9856 26.2183C13.4046 28.2503 16.4279 28.2044 17.7844 26.1301L13.5998 23.3935C14.1812 22.5045 15.4769 22.4848 16.085 23.3557L11.9856 26.2183Z" fill="#0066FF"/>
</svg>
