<svg width="31" height="31" viewBox="0 0 31 31" fill="none" xmlns="http://www.w3.org/2000/svg">
<path d="M15.9141 30.4092C17.2581 30.4092 18.5601 30.2322 19.7991 29.9007L16.6101 26.7132C16.3681 26.4703 16.1547 26.2005 15.9741 25.9092H15.9141C13.8374 25.9092 11.8073 25.2934 10.0806 24.1396C8.35386 22.9859 7.00805 21.346 6.21333 19.4274C5.41861 17.5087 5.21067 15.3975 5.61582 13.3607C6.02096 11.3239 7.02099 9.45301 8.48944 7.98456C9.95789 6.51611 11.8288 5.51608 13.8656 5.11093C15.9024 4.70579 18.0136 4.91372 19.9322 5.70844C21.8509 6.50316 23.4907 7.84898 24.6445 9.57569C25.7982 11.3024 26.4141 13.3325 26.4141 15.4092V15.4692C26.7021 15.6492 26.9721 15.8607 27.2166 16.1067L30.4056 19.2942C30.7371 18.0552 30.9141 16.7532 30.9141 15.4092C30.9141 7.12468 24.1986 0.40918 15.9141 0.40918C7.62956 0.40918 0.914062 7.12468 0.914062 15.4092C0.914062 23.6937 7.62956 30.4092 15.9141 30.4092ZM15.2931 22.8837C15.2931 21.6072 15.2301 20.3127 15.2991 19.0377L14.4891 18.2277C14.2104 17.949 13.9894 17.6183 13.8386 17.2542C13.6878 16.8902 13.6102 16.5 13.6102 16.1059C13.6102 15.7119 13.6878 15.3217 13.8386 14.9576C13.9894 14.5936 14.2104 14.2628 14.4891 13.9842C14.7677 13.7055 15.0985 13.4845 15.4625 13.3337C15.8266 13.1829 16.2168 13.1053 16.6108 13.1053C17.0049 13.1053 17.395 13.1829 17.7591 13.3337C18.1231 13.4845 18.4539 13.7055 18.7326 13.9842L19.5426 14.7942C20.8176 14.7252 22.1106 14.7882 23.3886 14.7882C23.2701 13.3627 22.7464 12.0008 21.8793 10.8631C21.0122 9.72545 19.8379 8.85949 18.4948 8.36734C17.1517 7.87519 15.6958 7.77739 14.299 8.08548C12.9021 8.39357 11.6225 9.09469 10.611 10.1062C9.59957 11.1176 8.89845 12.3972 8.59036 13.7941C8.28228 15.1909 8.38007 16.6468 8.87222 17.9899C9.36437 19.333 10.2303 20.5073 11.368 21.3744C12.5057 22.2415 13.8676 22.7652 15.2931 22.8837ZM25.6701 30.2187C25.9439 30.1052 26.1779 29.9131 26.3426 29.6667C26.5073 29.4203 26.5953 29.1306 26.5956 28.8342V26.0892H29.3391C29.6357 26.0891 29.9256 26.0011 30.1723 25.8363C30.4189 25.6715 30.6111 25.4372 30.7246 25.1632C30.8381 24.8891 30.8678 24.5876 30.8099 24.2966C30.7521 24.0057 30.6093 23.7385 30.3996 23.5287L25.0941 18.2292C24.8128 17.9479 24.4314 17.7898 24.0336 17.7897H20.4141L17.6706 15.0462C17.3891 14.7649 17.0074 14.607 16.6095 14.6071C16.2116 14.6073 15.8301 14.7655 15.5488 15.0469C15.2676 15.3284 15.1096 15.7101 15.1098 16.108C15.1099 16.5059 15.2681 16.8874 15.5496 17.1687L18.2931 19.9092V23.5302C18.2929 23.7274 18.3316 23.9227 18.4071 24.1049C18.4825 24.2872 18.5931 24.4527 18.7326 24.5922L24.0351 29.8947C24.2448 30.1046 24.5121 30.2475 24.8032 30.3055C25.0942 30.3634 25.3959 30.3337 25.6701 30.2202V30.2187Z" fill="#0066FF"/>
</svg>
