<svg width="122" height="30" viewBox="0 0 122 30" fill="none" xmlns="http://www.w3.org/2000/svg">
<g clip-path="url(#clip0_727_3493)">
<path d="M14.9325 29.0284C22.718 29.0284 29.0293 22.7171 29.0293 14.9316C29.0293 7.14618 22.718 0.834839 14.9325 0.834839C7.1471 0.834839 0.835754 7.14618 0.835754 14.9316C0.835754 22.7171 7.1471 29.0284 14.9325 29.0284Z" fill="#DA552F"/>
<path d="M16.8133 7.88171H9.99982V21.9785H12.8192V17.7495H16.8133C19.5386 17.7495 21.7471 15.541 21.7471 12.8156C21.7471 10.0902 19.5386 7.88171 16.8133 7.88171ZM16.8133 14.9301H12.8192V10.7011H16.8133C17.9762 10.7011 18.9278 11.6526 18.9278 12.8156C18.9278 13.9786 17.9762 14.9301 16.8133 14.9301Z" fill="white"/>
<path d="M38.4295 19.6311V10.2333H42.7525C44.7613 10.2333 45.8538 11.5842 45.8538 13.2053C45.8538 14.8147 44.7496 16.1657 42.7525 16.1657H40.4031V19.6311H38.4295ZM43.845 13.2053C43.845 12.43 43.2459 11.9601 42.4706 11.9601H40.3913V14.4388H42.4706C43.2459 14.4388 43.845 13.9689 43.845 13.2053Z" fill="#DA552F"/>
<path d="M47.0389 19.6292V12.7806H48.801V13.6851C49.2826 13.0977 50.1049 12.6161 50.939 12.6161V14.3312C50.8098 14.3077 50.6571 14.2842 50.4573 14.2842C49.87 14.2842 49.0947 14.6131 48.8127 15.0478V19.6292H47.0389Z" fill="#DA552F"/>
<path d="M51.6014 16.1168C51.6014 14.2255 52.9288 12.6161 55.1256 12.6161C57.3458 12.6161 58.6733 14.2255 58.6733 16.1168C58.6733 18.0081 57.3458 19.6292 55.1256 19.6292C52.9288 19.6292 51.6014 18.0081 51.6014 16.1168ZM56.8524 16.1168C56.8524 15.083 56.2416 14.1785 55.1373 14.1785C54.0448 14.1785 53.434 15.083 53.434 16.1168C53.434 17.174 54.0448 18.0668 55.1373 18.0668C56.2416 18.0668 56.8524 17.1623 56.8524 16.1168Z" fill="#DA552F"/>
<path d="M64.5902 19.6311V18.6091C64.0615 19.2787 63.345 19.6311 62.5226 19.6311C60.8428 19.6311 59.5623 18.3624 59.5623 16.1187C59.5623 13.9454 60.8193 12.618 62.5226 12.618C63.3097 12.618 64.0615 12.9469 64.5902 13.64V10.2333H66.364V19.6311H64.5902ZM64.5902 17.3052V14.944C64.2965 14.4976 63.6621 14.1804 63.0865 14.1804C62.0762 14.1804 61.3832 14.9674 61.3832 16.1187C61.3832 17.2817 62.0762 18.0687 63.0865 18.0687C63.6621 18.0687 64.2965 17.7516 64.5902 17.3052Z" fill="#DA552F"/>
<path d="M72.6124 19.6327V18.6225C72.1542 19.1159 71.3554 19.6327 70.2629 19.6327C68.7945 19.6327 68.1014 18.8339 68.1014 17.53V12.7841H69.8635V16.8369C69.8635 17.7649 70.3451 18.0704 71.0969 18.0704C71.7783 18.0704 72.3187 17.6944 72.6241 17.3068V12.7841H74.3862V19.6327H72.6124Z" fill="#DA552F"/>
<path d="M75.6951 16.1168C75.6951 14.0728 77.187 12.6161 79.2428 12.6161C80.6173 12.6161 81.4396 13.2152 81.886 13.8261L80.7347 14.9068C80.4175 14.4369 79.9359 14.1902 79.325 14.1902C78.256 14.1902 77.516 14.9656 77.516 16.1285C77.516 17.2915 78.2678 18.0786 79.325 18.0786C79.9359 18.0786 80.4175 17.7967 80.7347 17.3503L81.886 18.431C81.4396 19.0419 80.6173 19.6527 79.2428 19.6527C77.187 19.6292 75.6951 18.1726 75.6951 16.1168Z" fill="#DA552F"/>
<path d="M83.4009 17.7851V14.3079H82.2967V12.769H83.4009V10.9481H85.163V12.7807H86.514V14.3196H85.163V17.3269C85.163 17.7616 85.3862 18.0787 85.7739 18.0787C86.0323 18.0787 86.2908 17.9848 86.3848 17.8673L86.7607 19.2065C86.5022 19.4414 86.0323 19.6411 85.2923 19.6411C84.047 19.6294 83.4009 18.995 83.4009 17.7851Z" fill="#DA552F"/>
<path d="M97.7652 19.6311V15.5783H93.4069V19.6311H91.4451V10.2333H93.4069V13.8632H97.7652V10.2333H99.7505V19.6311H97.7652Z" fill="#DA552F"/>
<path d="M106.034 19.6327V18.6225C105.576 19.1159 104.777 19.6327 103.685 19.6327C102.216 19.6327 101.523 18.8339 101.523 17.53V12.7841H103.285V16.8369C103.285 17.7649 103.767 18.0704 104.519 18.0704C105.2 18.0704 105.741 17.6944 106.046 17.3068V12.7841H107.808V19.6327H106.034Z" fill="#DA552F"/>
<path d="M114.046 19.6292V15.4237C114.046 14.4957 113.564 14.1785 112.813 14.1785C112.119 14.1785 111.591 14.5661 111.285 14.9538V19.6292H109.523V12.7806H111.285V13.6381C111.72 13.1447 112.542 12.6161 113.623 12.6161C115.103 12.6161 115.808 13.4501 115.808 14.7424V19.6292H114.046Z" fill="#DA552F"/>
<path d="M117.924 17.7851V14.3079H116.82V12.769H117.924V10.9481H119.686V12.7807H121.037V14.3196H119.686V17.3269C119.686 17.7616 119.91 18.0787 120.297 18.0787C120.556 18.0787 120.814 17.9848 120.908 17.8673L121.284 19.2065C121.026 19.4414 120.556 19.6411 119.816 19.6411C118.57 19.6294 117.924 18.995 117.924 17.7851Z" fill="#DA552F"/>
</g>
<defs>
<clipPath id="clip0_727_3493">
<rect width="120.41" height="28.1936" fill="white" transform="translate(0.835754 0.834839)"/>
</clipPath>
</defs>
</svg>
