<svg width="115" height="19" viewBox="0 0 115 19" fill="none" xmlns="http://www.w3.org/2000/svg">
<g clip-path="url(#clip0_727_3476)">
<path d="M1.28206 9.40861C1.68394 7.31884 3.53258 5.87207 6.10461 5.87207C9.07852 5.87207 11.4094 7.15808 11.4094 11.1769V18.6518H8.83739L8.51589 17.0443C7.63176 18.1696 6.42612 18.893 4.65785 18.893C2.4877 18.893 0.799805 17.5266 0.799805 15.0349C0.799805 12.5433 3.05033 10.9358 6.18499 10.9358H8.27476V10.3731C8.27476 8.92635 7.22988 8.52447 6.02424 8.52447C5.1401 8.52447 4.25597 8.84598 3.85409 9.97124L1.28206 9.40861ZM5.38123 16.2406C6.828 16.2406 8.27476 15.2761 8.27476 13.6685V13.4274H6.26537C4.89898 13.347 4.09522 13.9097 4.09522 15.0349C4.09522 15.5976 4.57747 16.2406 5.38123 16.2406Z" fill="black"/>
<path d="M61.8836 9.40861C62.2855 7.31884 64.1341 5.87207 66.7062 5.87207C69.6801 5.87207 72.011 7.15808 72.011 11.1769V18.6518H69.439L69.1175 17.0443C68.2333 18.1696 67.0277 18.893 65.2594 18.893C63.0893 18.893 61.4014 17.5266 61.4014 15.0349C61.4014 12.5433 63.6519 10.9358 66.7865 10.9358H68.8763V10.3731C68.8763 8.92635 67.8314 8.52447 66.6258 8.52447C65.7417 8.52447 64.8575 8.84598 64.4556 9.97124L61.8836 9.40861ZM65.9828 16.2406C67.4296 16.2406 68.8763 15.2761 68.8763 13.6685V13.4274H66.7865C65.4202 13.4274 64.6164 13.9097 64.6164 15.0349C64.6968 15.5976 65.179 16.2406 65.9828 16.2406Z" fill="black"/>
<path d="M74.8232 18.7322V6.03282H77.9579V8.12259C78.842 6.59545 80.2888 5.87207 81.6552 5.87207C82.2178 5.87207 82.7001 5.95245 83.1823 6.1132L82.6197 9.00673C82.2178 8.7656 81.8159 8.60485 81.3337 8.60485C79.485 8.60485 77.9579 10.132 77.9579 14.1508V18.6518L74.8232 18.7322Z" fill="black"/>
<path d="M89.8581 5.87266C91.1441 5.87266 92.3497 6.51566 92.9123 7.23905V0.969727H96.047V18.7328H92.9123V17.4468C92.5105 18.0898 91.3852 18.9739 89.8581 18.9739C86.0804 18.9739 84.1514 16.3215 84.1514 12.4635C84.1514 8.60544 86.0804 5.87266 89.8581 5.87266ZM90.3403 16.2411C91.9478 16.2411 93.2338 14.8748 93.2338 12.3831C93.2338 9.89145 91.9478 8.52506 90.3403 8.52506C88.7328 8.52506 87.4468 9.89145 87.4468 12.3831C87.4468 14.8748 88.7328 16.2411 90.3403 16.2411Z" fill="black"/>
<path d="M107.297 7.88206L105.449 9.56996C104.886 8.7662 104.002 8.44469 103.359 8.44469C102.716 8.44469 102.153 8.84657 102.153 9.48958C102.153 10.0522 102.636 10.4541 103.359 10.6952C105.127 11.3382 107.94 11.9009 107.94 14.5533C107.94 16.8842 106.172 18.7328 103.439 18.7328C100.787 18.7328 99.0187 16.8842 98.4561 15.357L100.948 13.9906C101.43 15.1963 102.234 16.0804 103.52 16.0804C104.484 16.0804 105.127 15.5981 105.127 14.714C105.127 13.6691 103.52 13.428 101.993 12.785C100.626 12.2224 99.4206 11.3382 99.4206 9.4092C99.4206 7.48018 101.028 5.71191 103.439 5.71191C105.047 5.79229 106.574 6.67642 107.297 7.88206Z" fill="black"/>
<path d="M42.5136 6.03223L40.2631 14.7932L38.093 6.03223H35.1994L33.1097 14.7932L31.3414 9.72952L31.1003 10.2921L30.1357 13.5876L31.7433 18.7316H34.476L36.6462 10.5333L38.8163 18.7316H41.6295L45.6483 6.03223H42.5136Z" fill="black"/>
<path d="M57.5471 6.03223L55.2966 14.7932L53.1265 6.03223H50.2329L48.1432 14.7932L46.3749 9.72952L46.1338 10.2921L45.0889 13.5876L46.7768 18.7316H49.5095L51.6797 10.5333L53.8498 18.7316H56.5826L60.6818 6.03223H57.5471Z" fill="black"/>
<path d="M30.6198 6.03223L26.601 18.6512H23.8682L21.6981 10.5333L19.5279 18.7316H16.7952L12.7764 6.1126H15.911L18.1616 14.7932L20.3317 6.1126H23.2252L25.3954 14.7932L27.6459 6.1126L30.6198 6.03223Z" fill="black"/>
<path d="M112.038 14.6338C113.244 14.6338 114.128 15.5179 114.128 16.7236C114.128 17.9292 113.244 18.8133 112.038 18.8133C110.832 18.8133 109.948 17.9292 109.948 16.7236C109.948 15.5179 110.832 14.6338 112.038 14.6338Z" fill="black"/>
</g>
<defs>
<clipPath id="clip0_727_3476">
<rect width="113.33" height="17.9238" fill="white" transform="translate(0.799805 0.969727)"/>
</clipPath>
</defs>
</svg>
