<svg width="49" height="48" viewBox="0 0 49 48" fill="none" xmlns="http://www.w3.org/2000/svg">
<path d="M23.6975 47.4455C36.734 47.4455 47.3021 36.9111 47.3021 23.9161C47.3021 10.9212 36.734 0.386719 23.6975 0.386719C10.661 0.386719 0.0927734 10.9212 0.0927734 23.9161C0.0927734 36.9111 10.661 47.4455 23.6975 47.4455Z" fill="#5E85ED"/>
<path d="M30.2223 31.4448V19.6902H26.0107V17.2969H37.2898V19.6902H33.088V31.4448H30.2223Z" fill="white"/>
<path d="M3.86914 17.3262H23.6971V20.1497L15.3908 18.9396L3.86914 17.3262Z" fill="white"/>
<path d="M9.53418 22.9746H23.697V25.7981L17.7639 24.5881L9.53418 22.9746Z" fill="white" fill-opacity="0.75"/>
<path d="M14.2549 27.6797H23.6968V30.5032L19.7414 29.2931L14.2549 27.6797Z" fill="white" fill-opacity="0.5"/>
</svg>
