<svg width="215" height="48" viewBox="0 0 215 48" fill="none" xmlns="http://www.w3.org/2000/svg">
<path d="M23.6975 47.4455C36.734 47.4455 47.3021 36.9111 47.3021 23.9161C47.3021 10.9212 36.734 0.386719 23.6975 0.386719C10.661 0.386719 0.0927734 10.9212 0.0927734 23.9161C0.0927734 36.9111 10.661 47.4455 23.6975 47.4455Z" fill="#5E85ED"/>
<path d="M30.2223 31.4448V19.6902H26.0107V17.2969H37.2898V19.6902H33.088V31.4448H30.2223Z" fill="white"/>
<path d="M3.86914 17.3262H23.6971V20.1497L15.3908 18.9396L3.86914 17.3262Z" fill="white"/>
<path d="M9.53418 22.9746H23.697V25.7981L17.7639 24.5881L9.53418 22.9746Z" fill="white" fill-opacity="0.75"/>
<path d="M14.2549 27.6797H23.6968V30.5032L19.7414 29.2931L14.2549 27.6797Z" fill="white" fill-opacity="0.5"/>
<path d="M69.6525 32.9238L67.2148 30.2947C66.6154 30.4673 65.956 30.5536 65.2367 30.5536C63.9446 30.5536 62.7524 30.2549 61.6602 29.6574C60.5812 29.0466 59.722 28.2034 59.0826 27.1279C58.4566 26.0391 58.1436 24.8175 58.1436 23.4632C58.1436 22.1088 58.4566 20.8939 59.0826 19.8184C59.722 18.7429 60.5812 17.9063 61.6602 17.3088C62.7524 16.698 63.9446 16.3926 65.2367 16.3926C66.5421 16.3926 67.7343 16.698 68.8133 17.3088C69.9055 17.9063 70.7647 18.7429 71.3908 19.8184C72.0168 20.8939 72.3299 22.1088 72.3299 23.4632C72.3299 24.7379 72.0501 25.8931 71.4907 26.9287C70.9445 27.9512 70.1853 28.7744 69.2129 29.3985L72.5497 32.9238H69.6525ZM60.4813 23.4632C60.4813 24.4856 60.6811 25.3885 61.0807 26.1719C61.4937 26.942 62.0598 27.5395 62.7791 27.9644C63.4984 28.3761 64.3176 28.5819 65.2367 28.5819C66.1558 28.5819 66.975 28.3761 67.6943 27.9644C68.4136 27.5395 68.9731 26.942 69.3727 26.1719C69.7857 25.3885 69.9921 24.4856 69.9921 23.4632C69.9921 22.4408 69.7857 21.5445 69.3727 20.7744C68.9731 20.0043 68.4136 19.4134 67.6943 19.0018C66.975 18.5902 66.1558 18.3843 65.2367 18.3843C64.3176 18.3843 63.4984 18.5902 62.7791 19.0018C62.0598 19.4134 61.4937 20.0043 61.0807 20.7744C60.6811 21.5445 60.4813 22.4408 60.4813 23.4632Z" fill="#241F32"/>
<path d="M84.6002 19.44V30.4142H82.3224V29.1196C81.9628 29.5711 81.4899 29.9296 80.9038 30.1951C80.331 30.4474 79.7183 30.5736 79.0656 30.5736C78.1997 30.5736 77.4205 30.3943 76.7278 30.0358C76.0485 29.6773 75.509 29.1462 75.1094 28.4424C74.7231 27.7387 74.5299 26.8889 74.5299 25.8931V19.44H76.7878V25.5545C76.7878 26.537 77.0342 27.2939 77.527 27.825C78.0199 28.3429 78.6926 28.6018 79.5451 28.6018C80.3976 28.6018 81.0703 28.3429 81.5632 27.825C82.0693 27.2939 82.3224 26.537 82.3224 25.5545V19.44H84.6002Z" fill="#241F32"/>
<path d="M88.7645 17.986C88.3516 17.986 88.0052 17.8466 87.7255 17.5678C87.4458 17.2889 87.3059 16.9437 87.3059 16.5321C87.3059 16.1204 87.4458 15.7752 87.7255 15.4964C88.0052 15.2175 88.3516 15.0781 88.7645 15.0781C89.1641 15.0781 89.5038 15.2175 89.7835 15.4964C90.0632 15.7752 90.2031 16.1204 90.2031 16.5321C90.2031 16.9437 90.0632 17.2889 89.7835 17.5678C89.5038 17.8466 89.1641 17.986 88.7645 17.986ZM89.8834 19.44V30.4142H87.6056V19.44H89.8834Z" fill="#241F32"/>
<path d="M92.1147 24.9171C92.1147 23.7885 92.3411 22.7993 92.794 21.9495C93.2603 21.0864 93.8996 20.4225 94.7122 19.9578C95.5247 19.4931 96.4572 19.2607 97.5095 19.2607C98.8415 19.2607 99.9405 19.5794 100.806 20.2167C101.685 20.8408 102.278 21.737 102.585 22.9055H100.127C99.9272 22.3611 99.6075 21.9362 99.1679 21.6308C98.7283 21.3254 98.1755 21.1727 97.5095 21.1727C96.5771 21.1727 95.8311 21.5047 95.2716 22.1686C94.7255 22.8192 94.4524 23.7354 94.4524 24.9171C94.4524 26.0989 94.7255 27.0217 95.2716 27.6856C95.8311 28.3495 96.5771 28.6814 97.5095 28.6814C98.8282 28.6814 99.7007 28.1039 100.127 26.9487H102.585C102.265 28.064 101.665 28.9536 100.786 29.6175C99.9072 30.2682 98.8149 30.5935 97.5095 30.5935C96.4572 30.5935 95.5247 30.3611 94.7122 29.8964C93.8996 29.4184 93.2603 28.7545 92.794 27.9047C92.3411 27.0416 92.1147 26.0458 92.1147 24.9171Z" fill="#241F32"/>
<path d="M109.21 24.937L114.285 30.4142H111.208L107.132 25.6939V30.4142H104.855V15.6756H107.132V24.24L111.129 19.44H114.285L109.21 24.937Z" fill="#241F32"/>
<path d="M118.576 21.2922V27.3669C118.576 27.7785 118.669 28.0773 118.855 28.2632C119.055 28.4358 119.388 28.5221 119.854 28.5221H121.253V30.4142H119.455C118.429 30.4142 117.643 30.1752 117.097 29.6972C116.551 29.2192 116.278 28.4424 116.278 27.3669V21.2922H114.979V19.44H116.278V16.7113H118.576V19.44H121.253V21.2922H118.576Z" fill="#241F32"/>
<path d="M125.63 21.0333C125.963 20.4756 126.403 20.0441 126.949 19.7387C127.508 19.42 128.168 19.2607 128.927 19.2607V21.6109H128.348C127.455 21.6109 126.776 21.8366 126.31 22.2881C125.857 22.7395 125.63 23.5229 125.63 24.6383V30.4142H123.352V19.44H125.63V21.0333Z" fill="#241F32"/>
<path d="M130.261 24.8773C130.261 23.7752 130.488 22.7993 130.941 21.9495C131.407 21.0997 132.033 20.4424 132.819 19.9777C133.618 19.4997 134.497 19.2607 135.456 19.2607C136.322 19.2607 137.075 19.4333 137.714 19.7785C138.367 20.1105 138.886 20.5287 139.273 21.0333V19.44H141.571V30.4142H139.273V28.781C138.886 29.2989 138.36 29.7304 137.694 30.0756C137.028 30.4209 136.269 30.5935 135.417 30.5935C134.471 30.5935 133.605 30.3545 132.819 29.8765C132.033 29.3852 131.407 28.708 130.941 27.8449C130.488 26.9686 130.261 25.9794 130.261 24.8773ZM139.273 24.9171C139.273 24.1603 139.113 23.503 138.793 22.9453C138.487 22.3877 138.081 21.9628 137.574 21.6707C137.068 21.3785 136.522 21.2325 135.936 21.2325C135.35 21.2325 134.804 21.3785 134.298 21.6707C133.791 21.9495 133.378 22.3678 133.059 22.9254C132.752 23.4698 132.599 24.1204 132.599 24.8773C132.599 25.6341 132.752 26.298 133.059 26.869C133.378 27.44 133.791 27.8781 134.298 28.1835C134.817 28.4756 135.363 28.6217 135.936 28.6217C136.522 28.6217 137.068 28.4756 137.574 28.1835C138.081 27.8914 138.487 27.4665 138.793 26.9088C139.113 26.3379 139.273 25.674 139.273 24.9171Z" fill="#241F32"/>
<path d="M150.117 19.2607C150.983 19.2607 151.755 19.44 152.435 19.7985C153.127 20.157 153.667 20.6881 154.053 21.3918C154.44 22.0956 154.633 22.9453 154.633 23.9412V30.4142H152.375V24.2798C152.375 23.2972 152.128 22.547 151.636 22.0292C151.143 21.498 150.47 21.2325 149.618 21.2325C148.765 21.2325 148.086 21.498 147.579 22.0292C147.087 22.547 146.84 23.2972 146.84 24.2798V30.4142H144.562V19.44H146.84V20.6947C147.213 20.2433 147.686 19.8914 148.259 19.6391C148.845 19.3868 149.464 19.2607 150.117 19.2607Z" fill="#241F32"/>
<path d="M161.534 30.5935C160.668 30.5935 159.889 30.4408 159.197 30.1354C158.517 29.8167 157.978 29.3918 157.578 28.8607C157.178 28.3163 156.965 27.7122 156.939 27.0483H159.296C159.336 27.513 159.556 27.9047 159.956 28.2234C160.369 28.5287 160.882 28.6814 161.494 28.6814C162.134 28.6814 162.627 28.5619 162.973 28.3229C163.333 28.0707 163.512 27.752 163.512 27.3669C163.512 26.9553 163.313 26.6499 162.913 26.4507C162.527 26.2516 161.907 26.0325 161.055 25.7935C160.229 25.5678 159.556 25.3487 159.037 25.1362C158.517 24.9238 158.064 24.5985 157.678 24.1603C157.305 23.7221 157.119 23.1445 157.119 22.4275C157.119 21.8433 157.292 21.3122 157.638 20.8341C157.984 20.3429 158.477 19.9578 159.117 19.679C159.769 19.4001 160.515 19.2607 161.354 19.2607C162.607 19.2607 163.612 19.5794 164.372 20.2167C165.144 20.8408 165.557 21.6972 165.61 22.786H163.333C163.293 22.2947 163.093 21.903 162.733 21.6109C162.373 21.3188 161.887 21.1727 161.275 21.1727C160.675 21.1727 160.216 21.2856 159.896 21.5113C159.576 21.737 159.416 22.0358 159.416 22.4076C159.416 22.6997 159.523 22.9453 159.736 23.1445C159.949 23.3437 160.209 23.503 160.515 23.6225C160.822 23.7287 161.275 23.8682 161.874 24.0408C162.673 24.2532 163.326 24.4723 163.832 24.698C164.352 24.9105 164.798 25.2292 165.171 25.6541C165.544 26.079 165.737 26.6433 165.75 27.347C165.75 27.9711 165.577 28.5287 165.231 29.02C164.884 29.5113 164.392 29.8964 163.752 30.1752C163.126 30.4541 162.387 30.5935 161.534 30.5935Z" fill="#241F32"/>
<path d="M170.489 15.6756V30.4142H168.211V15.6756H170.489Z" fill="#241F32"/>
<path d="M172.721 24.8773C172.721 23.7752 172.947 22.7993 173.4 21.9495C173.866 21.0997 174.492 20.4424 175.278 19.9777C176.077 19.4997 176.956 19.2607 177.916 19.2607C178.781 19.2607 179.534 19.4333 180.173 19.7785C180.826 20.1105 181.346 20.5287 181.732 21.0333V19.44H184.03V30.4142H181.732V28.781C181.346 29.2989 180.819 29.7304 180.153 30.0756C179.487 30.4209 178.728 30.5935 177.876 30.5935C176.93 30.5935 176.064 30.3545 175.278 29.8765C174.492 29.3852 173.866 28.708 173.4 27.8449C172.947 26.9686 172.721 25.9794 172.721 24.8773ZM181.732 24.9171C181.732 24.1603 181.572 23.503 181.252 22.9453C180.946 22.3877 180.54 21.9628 180.033 21.6707C179.527 21.3785 178.981 21.2325 178.395 21.2325C177.809 21.2325 177.263 21.3785 176.757 21.6707C176.25 21.9495 175.838 22.3678 175.518 22.9254C175.211 23.4698 175.058 24.1204 175.058 24.8773C175.058 25.6341 175.211 26.298 175.518 26.869C175.838 27.44 176.25 27.8781 176.757 28.1835C177.276 28.4756 177.822 28.6217 178.395 28.6217C178.981 28.6217 179.527 28.4756 180.033 28.1835C180.54 27.8914 180.946 27.4665 181.252 26.9088C181.572 26.3379 181.732 25.674 181.732 24.9171Z" fill="#241F32"/>
<path d="M189.679 21.2922V27.3669C189.679 27.7785 189.772 28.0773 189.959 28.2632C190.158 28.4358 190.491 28.5221 190.958 28.5221H192.356V30.4142H190.558C189.532 30.4142 188.746 30.1752 188.2 29.6972C187.654 29.2192 187.381 28.4424 187.381 27.3669V21.2922H186.082V19.44H187.381V16.7113H189.679V19.44H192.356V21.2922H189.679Z" fill="#241F32"/>
<path d="M204.546 24.6582C204.546 25.0698 204.519 25.4416 204.466 25.7736H196.054C196.121 26.6499 196.447 27.3536 197.033 27.8848C197.619 28.4159 198.339 28.6814 199.191 28.6814C200.417 28.6814 201.282 28.1702 201.789 27.1478H204.246C203.913 28.157 203.307 28.9868 202.428 29.6375C201.562 30.2748 200.483 30.5935 199.191 30.5935C198.139 30.5935 197.193 30.3611 196.354 29.8964C195.528 29.4184 194.875 28.7545 194.396 27.9047C193.929 27.0416 193.696 26.0458 193.696 24.9171C193.696 23.7885 193.923 22.7993 194.376 21.9495C194.842 21.0864 195.488 20.4225 196.314 19.9578C197.153 19.4931 198.112 19.2607 199.191 19.2607C200.23 19.2607 201.156 19.4864 201.968 19.9379C202.781 20.3893 203.414 21.0267 203.867 21.8499C204.319 22.6599 204.546 23.596 204.546 24.6582ZM202.168 23.9412C202.155 23.1047 201.855 22.4341 201.269 21.9296C200.683 21.425 199.957 21.1727 199.091 21.1727C198.305 21.1727 197.633 21.425 197.073 21.9296C196.514 22.4209 196.181 23.0914 196.074 23.9412H202.168Z" fill="#241F32"/>
<path d="M210.784 30.5935C209.918 30.5935 209.139 30.4408 208.446 30.1354C207.767 29.8167 207.227 29.3918 206.827 28.8607C206.428 28.3163 206.215 27.7122 206.188 27.0483H208.546C208.586 27.513 208.806 27.9047 209.205 28.2234C209.618 28.5287 210.131 28.6814 210.744 28.6814C211.383 28.6814 211.876 28.5619 212.222 28.3229C212.582 28.0707 212.762 27.752 212.762 27.3669C212.762 26.9553 212.562 26.6499 212.162 26.4507C211.776 26.2516 211.157 26.0325 210.304 25.7935C209.478 25.5678 208.806 25.3487 208.286 25.1362C207.767 24.9238 207.314 24.5985 206.927 24.1603C206.554 23.7221 206.368 23.1445 206.368 22.4275C206.368 21.8433 206.541 21.3122 206.887 20.8341C207.234 20.3429 207.727 19.9578 208.366 19.679C209.019 19.4001 209.765 19.2607 210.604 19.2607C211.856 19.2607 212.862 19.5794 213.621 20.2167C214.394 20.8408 214.806 21.6972 214.86 22.786H212.582C212.542 22.2947 212.342 21.903 211.982 21.6109C211.623 21.3188 211.137 21.1727 210.524 21.1727C209.924 21.1727 209.465 21.2856 209.145 21.5113C208.826 21.737 208.666 22.0358 208.666 22.4076C208.666 22.6997 208.772 22.9453 208.985 23.1445C209.199 23.3437 209.458 23.503 209.765 23.6225C210.071 23.7287 210.524 23.8682 211.123 24.0408C211.923 24.2532 212.575 24.4723 213.081 24.698C213.601 24.9105 214.047 25.2292 214.42 25.6541C214.793 26.079 214.986 26.6433 215 27.347C215 27.9711 214.826 28.5287 214.48 29.02C214.134 29.5113 213.641 29.8964 213.002 30.1752C212.375 30.4541 211.636 30.5935 210.784 30.5935Z" fill="#241F32"/>
</svg>
