<svg width="108" height="25" viewBox="0 0 108 25" fill="none" xmlns="http://www.w3.org/2000/svg">
<g clip-path="url(#clip0_727_3488)" filter="url(#filter0_d_727_3488)">
<path d="M12.4877 7.13474H10.0919V12.5919C10.0919 13.5236 10.6243 13.7232 11.4894 13.7232C11.8222 13.7232 12.1549 13.6567 12.4877 13.6567V16.5183C11.7556 16.5183 11.0236 16.6514 10.3581 16.6514C7.03055 16.6514 6.16539 15.6532 6.16539 12.3922V7.13474H4.16888V4.53927H6.16539V0.945557H10.0919V4.53927H12.4877V7.13474ZM15.9483 11.5271C16.0148 13.1908 16.9465 14.2556 18.6103 14.2556C19.542 14.2556 20.4737 13.7898 20.873 12.9246H24.5333C23.8678 15.7197 21.2723 16.9176 18.6103 16.9176C14.6838 16.9176 12.0218 14.5884 12.0218 10.5288C12.0218 6.86854 14.95 4.20652 18.4772 4.20652C22.803 4.20652 24.9326 7.46749 24.7329 11.5271H15.9483ZM20.8065 9.3309C20.7399 7.99989 19.8082 6.86854 18.4772 6.86854C17.0796 6.86854 16.1479 7.86679 15.9483 9.3309H20.8065ZM33.3845 8.9316C33.3845 7.93334 32.4528 7.20129 31.4545 7.20129C29.2584 7.20129 28.9256 9.0647 28.9256 10.7285C28.9256 12.2591 29.5911 13.8563 31.2549 13.8563C32.6524 13.8563 33.3179 13.0577 33.5176 11.7933H37.311C36.9782 15.0542 34.5158 16.9176 31.3214 16.9176C27.7277 16.9176 24.9991 14.4553 24.9991 10.795C24.9991 7.00164 27.395 4.27307 31.3214 4.27307C34.3162 4.27307 36.9782 5.87028 37.2444 8.99815H33.3845V8.9316ZM37.4441 0.945557H41.3705V6.20303H41.4371C42.036 5.00513 43.6332 4.20652 45.0973 4.20652C49.0904 4.20652 49.4231 7.13474 49.4231 8.86505V16.5849H45.4966V10.795C45.4966 9.13125 45.6963 7.46749 43.5001 7.46749C42.036 7.46749 41.3705 8.73195 41.3705 10.063V16.5849H37.4441V0.945557ZM49.7559 4.53927H53.5492V6.66889H53.6158C54.2147 5.13823 55.5457 4.33962 57.2095 4.33962C57.5423 4.33962 57.8085 4.33962 58.1412 4.40617V7.99989C57.6088 7.86679 57.143 7.80024 56.6106 7.80024C54.6806 7.80024 53.6823 9.13125 53.6823 10.6619V16.5849H49.7559V4.53927ZM58.1412 8.26609C58.2078 6.66889 58.9398 5.67063 60.0046 5.07168C61.0694 4.47272 62.467 4.20652 63.798 4.20652C66.6597 4.20652 69.3882 4.80548 69.3882 8.19954V13.457C69.3882 14.4553 69.3882 15.5866 69.8541 16.5183H65.9276C65.7945 16.119 65.7279 15.7863 65.7279 15.387C64.6631 16.5183 63.199 16.9176 61.7349 16.9176C59.4722 16.9176 57.6088 15.7863 57.6088 13.2574C57.6088 9.3309 61.868 9.66365 64.5966 9.0647C65.2621 8.9316 65.6614 8.6654 65.6614 7.93334C65.6614 7.00164 64.5966 6.66889 63.7314 6.66889C62.6666 6.66889 61.9346 7.13474 61.7349 8.19954H58.1412V8.26609ZM63.199 14.5218C65.0624 14.5218 65.728 13.457 65.5948 10.9947C65.0624 11.3274 63.9976 11.394 63.199 11.6602C62.3339 11.8598 61.6018 12.2591 61.6018 13.1908C61.6018 14.1225 62.3339 14.5218 63.199 14.5218ZM82.0993 16.5849H78.3725V15.1873H78.306C77.9547 15.7296 77.4708 16.1731 76.9002 16.4759C76.3295 16.7787 75.6909 16.9308 75.045 16.9176C71.2516 16.9176 69.6544 13.6567 69.6544 10.3292C69.6544 7.20129 71.3182 4.27307 74.7122 4.27307C76.1764 4.27307 77.3077 4.80548 78.1063 5.93683H78.1729V0.945557H82.0993V16.5849ZM73.5809 10.4623C73.5809 12.126 74.1798 13.9229 75.9767 13.9229C77.9067 13.9229 78.306 12.126 78.306 10.5954C78.306 8.86505 77.707 7.26784 75.9767 7.26784C74.1798 7.20129 73.5809 8.9316 73.5809 10.4623ZM82.6983 8.26609C82.7648 6.66889 83.4969 5.67063 84.5617 5.07168C85.6265 4.47272 87.0241 4.20652 88.3551 4.20652C91.2167 4.20652 93.9453 4.80548 93.9453 8.19954V13.457C93.9453 14.4553 93.9453 15.5866 94.4111 16.5183H90.4847C90.3516 16.119 90.285 15.7863 90.285 15.387C89.2202 16.5183 87.6896 16.9176 86.292 16.9176C84.0293 16.9176 82.1659 15.7863 82.1659 13.2574C82.1659 9.3309 86.4251 9.66365 89.1537 9.0647C89.8192 8.9316 90.2185 8.6654 90.2185 7.93334C90.2185 7.00164 89.1537 6.66889 88.2885 6.66889C87.2237 6.66889 86.4917 7.13474 86.292 8.19954H82.6983V8.26609ZM87.7561 14.5218C89.6195 14.5218 90.285 13.457 90.1519 10.9947C89.6195 11.3274 88.5547 11.394 87.7561 11.6602C86.891 11.8598 86.1589 12.2591 86.1589 13.1908C86.0923 14.1225 86.891 14.5218 87.7561 14.5218ZM94.5442 4.53927H98.3376V6.66889H98.4042C99.0031 5.13823 100.334 4.33962 101.998 4.33962C102.331 4.33962 102.996 4.33962 103.329 4.40617V7.99989C102.796 7.86679 101.998 7.80024 101.465 7.80024C99.5355 7.80024 98.5373 9.13125 98.5373 10.6619V16.5849H94.6108V4.53927H94.5442Z" fill="black"/>
<path d="M99.4033 12.6565H103.33V16.583H99.4033V12.6565Z" fill="#E6248A"/>
</g>
<defs>
<filter id="filter0_d_727_3488" x="0.168884" y="0.945557" width="107.16" height="23.972" filterUnits="userSpaceOnUse" color-interpolation-filters="sRGB">
<feFlood flood-opacity="0" result="BackgroundImageFix"/>
<feColorMatrix in="SourceAlpha" type="matrix" values="0 0 0 0 0 0 0 0 0 0 0 0 0 0 0 0 0 0 127 0" result="hardAlpha"/>
<feOffset dy="4"/>
<feGaussianBlur stdDeviation="2"/>
<feComposite in2="hardAlpha" operator="out"/>
<feColorMatrix type="matrix" values="0 0 0 0 0 0 0 0 0 0 0 0 0 0 0 0 0 0 0.25 0"/>
<feBlend mode="normal" in2="BackgroundImageFix" result="effect1_dropShadow_727_3488"/>
<feBlend mode="normal" in="SourceGraphic" in2="effect1_dropShadow_727_3488" result="shape"/>
</filter>
<clipPath id="clip0_727_3488">
<rect width="99.16" height="15.9721" fill="white" transform="translate(4.16888 0.945557)"/>
</clipPath>
</defs>
</svg>
