<svg width="86" height="26" viewBox="0 0 86 26" fill="none" xmlns="http://www.w3.org/2000/svg">
<g clip-path="url(#clip0_727_3554)">
<path d="M9.64205 4.49072V11.2867H3.39856V4.49072H0.436386V20.7137H3.39936V14.1382H9.64124V20.7137H12.605V4.49072H9.64205ZM22.0889 15.4702C22.0889 16.1204 21.8306 16.744 21.3708 17.2038C20.911 17.6636 20.2874 17.9219 19.6372 17.9219C18.9869 17.9219 18.3633 17.6636 17.9035 17.2038C17.4437 16.744 17.1854 16.1204 17.1854 15.4702V8.52101H14.3748V15.4702C14.3748 16.8644 14.9287 18.2016 15.9146 19.1875C16.9005 20.1734 18.2377 20.7273 19.632 20.7273C21.0262 20.7273 22.3634 20.1734 23.3493 19.1875C24.3352 18.2016 24.8891 16.8644 24.8891 15.4702V8.52101H22.0889V15.4702ZM42.9147 9.23709C42.9147 7.81214 43.857 7.36068 44.889 7.36068C45.7213 7.36068 46.8199 7.99417 47.5392 8.76237L49.3795 6.59247C48.4606 5.34954 46.597 4.49072 45.071 4.49072C42.0214 4.49072 39.8162 6.27652 39.8162 9.23709C39.8162 14.73 46.5296 12.9867 46.5296 16.0611C46.5296 17.009 45.6091 17.8461 44.5554 17.8461C42.8931 17.8461 42.3542 17.0338 41.5908 16.1742L39.5476 18.2984C40.8547 19.9022 42.4665 20.7169 44.3966 20.7169C47.2938 20.7169 49.6241 18.9094 49.6241 16.0836C49.6241 9.98605 42.9099 11.8809 42.9099 9.23709M84.4477 18.122C82.7869 18.122 82.3146 17.4035 82.3146 16.3033V11.4319H84.8967V8.96365H82.3146V5.70719L79.4647 6.98619V16.9087C79.4647 19.4467 81.2161 20.7257 83.6169 20.7257C83.9938 20.7321 84.3707 20.7017 84.7411 20.6359L85.4364 18.0763C85.1228 18.0979 84.7628 18.1196 84.4477 18.1196M32.7877 8.602C31.3956 8.602 30.4237 9.00615 29.4839 9.92752V4.58775H26.6693V14.4854C26.6693 18.1902 29.3476 20.7289 32.3579 20.7289C35.697 20.7289 38.6343 18.1453 38.6343 14.6667C38.6343 11.2314 35.9311 8.6044 32.7877 8.6044M32.7701 17.8959C32.3506 17.8959 31.9352 17.8132 31.5477 17.6527C31.1601 17.4922 30.808 17.2569 30.5113 16.9603C30.2147 16.6637 29.9794 16.3115 29.8189 15.924C29.6584 15.5364 29.5758 15.121 29.5758 14.7015C29.5758 14.2821 29.6584 13.8667 29.8189 13.4791C29.9794 13.0916 30.2147 12.7394 30.5113 12.4428C30.808 12.1462 31.1601 11.9109 31.5477 11.7504C31.9352 11.5899 32.3506 11.5072 32.7701 11.5072C33.6172 11.5072 34.4297 11.8438 35.0288 12.4428C35.6278 13.0419 35.9644 13.8544 35.9644 14.7015C35.9644 15.5487 35.6278 16.3612 35.0288 16.9603C34.4297 17.5593 33.6172 17.8959 32.7701 17.8959ZM63.3556 14.5191C63.3556 11.0341 60.4247 8.45685 57.0793 8.45685C54.0698 8.45685 51.3907 10.9948 51.3907 14.7003V24.6036H54.2053V19.2567C55.1435 20.1764 56.117 20.5822 57.5075 20.5822C60.6509 20.5822 63.3556 17.9552 63.3556 14.5191ZM60.6902 14.4838C60.6902 15.331 60.3536 16.1435 59.7546 16.7426C59.1555 17.3416 58.343 17.6782 57.4958 17.6782C56.6487 17.6782 55.8362 17.3416 55.2371 16.7426C54.6381 16.1435 54.3015 15.331 54.3015 14.4838C54.3015 13.6367 54.6381 12.8242 55.2371 12.2251C55.8362 11.6261 56.6487 11.2895 57.4958 11.2895C58.343 11.2895 59.1555 11.6261 59.7546 12.2251C60.3536 12.8242 60.6902 13.6367 60.6902 14.4838Z" fill="#33475B"/>
<path d="M72.4487 8.32244V5.49419C72.8225 5.31951 73.1389 5.04228 73.3612 4.69475C73.5835 4.34723 73.7026 3.94371 73.7045 3.53117V3.46621C73.7045 2.26338 72.7294 1.28829 71.5265 1.28829H71.4616C70.884 1.28829 70.33 1.51775 69.9216 1.92619C69.5131 2.33463 69.2837 2.88859 69.2837 3.46621V3.53117C69.2856 3.94371 69.4046 4.34723 69.6269 4.69475C69.8492 5.04228 70.1657 5.31951 70.5394 5.49419V8.32244C69.4653 8.48692 68.4536 8.93229 67.6069 9.61348L59.8503 3.57206C59.9056 3.37239 59.9345 3.16711 59.9377 2.96103C59.9386 2.47565 59.7956 2.00089 59.5267 1.59681C59.2578 1.19272 58.8751 0.877468 58.427 0.690916C57.9789 0.504364 57.4855 0.454898 57.0093 0.548773C56.5331 0.642649 56.0954 0.875649 55.7517 1.2183C55.4079 1.56096 55.1735 1.99787 55.078 2.47377C54.9826 2.94968 55.0305 3.44319 55.2155 3.8919C55.4006 4.3406 55.7146 4.72433 56.1178 4.99456C56.521 5.26478 56.9953 5.40935 57.4807 5.40999C57.9053 5.40799 58.322 5.29462 58.6891 5.08121L66.3271 11.0248C65.641 12.0614 65.283 13.2806 65.2999 14.5236C65.3168 15.7666 65.7077 16.9756 66.4217 17.9932L64.0987 20.3171C63.9109 20.257 63.7152 20.2251 63.5181 20.2224C63.1197 20.2228 62.7303 20.3412 62.3992 20.5627C62.068 20.7843 61.81 21.099 61.6577 21.4672C61.5053 21.8353 61.4656 22.2404 61.5434 22.6311C61.6212 23.0219 61.8131 23.3808 62.0948 23.6625C62.3765 23.9442 62.7354 24.1361 63.1262 24.2139C63.5169 24.2917 63.922 24.252 64.2901 24.0996C64.6583 23.9473 64.973 23.6893 65.1946 23.3581C65.4161 23.027 65.5345 22.6376 65.5348 22.2392C65.5323 22.042 65.5004 21.8464 65.4402 21.6586L67.7384 19.3596C68.4879 19.9366 69.3594 20.3343 70.2863 20.5224C71.2132 20.7105 72.1709 20.684 73.0859 20.4448C74.001 20.2056 74.8491 19.7601 75.5654 19.1425C76.2817 18.5249 76.8472 17.7515 77.2184 16.8817C77.5897 16.0118 77.7569 15.0684 77.7072 14.124C77.6576 13.1795 77.3924 12.2589 76.932 11.4327C76.4716 10.6065 75.8282 9.89668 75.0511 9.35757C74.274 8.81845 73.3838 8.46437 72.4487 8.32244ZM71.4961 17.6243C71.0713 17.636 70.6486 17.5624 70.2528 17.408C69.8569 17.2535 69.4961 17.0213 69.1915 16.725C68.887 16.4287 68.6449 16.0744 68.4796 15.683C68.3143 15.2915 68.2291 14.8709 68.2291 14.446C68.2291 14.0212 68.3143 13.6006 68.4796 13.2091C68.6449 12.8177 68.887 12.4634 69.1915 12.1671C69.4961 11.8708 69.8569 11.6386 70.2528 11.4841C70.6486 11.3296 71.0713 11.2561 71.4961 11.2678C72.3193 11.2966 73.0992 11.6438 73.6715 12.2362C74.2438 12.8286 74.5639 13.62 74.5643 14.4437C74.5647 15.2674 74.2454 16.0591 73.6737 16.6521C73.102 17.2451 72.3225 17.5931 71.4993 17.6227" fill="#FF7A59"/>
</g>
<defs>
<clipPath id="clip0_727_3554">
<rect width="85" height="24.8585" fill="white" transform="translate(0.436386 0.502441)"/>
</clipPath>
</defs>
</svg>
