<svg width="135" height="134" viewBox="0 0 135 134" fill="none" xmlns="http://www.w3.org/2000/svg">
<path d="M70.6297 43.3926C77.2781 43.3926 83.8906 43.3926 90.539 43.3926C94.8515 43.3926 97.5109 46.052 97.5109 50.3286C97.5109 60.6786 97.5109 71.0286 97.5469 81.3786C97.5469 82.5645 97.1515 83.427 96.3609 84.2176C93.0906 87.4161 89.8562 90.6504 86.6578 93.9207C85.8672 94.7114 85.0406 95.0707 83.9265 95.0348C72.8219 94.9989 61.6812 95.0348 50.5765 94.9989C46.4797 94.9989 43.7484 92.2676 43.7484 88.1707C43.7484 75.4848 43.7484 62.7989 43.7484 50.1129C43.7484 46.0879 46.4797 43.3567 50.5047 43.3207C57.189 43.3926 63.9094 43.3926 70.6297 43.3926ZM70.6656 56.2942C63.55 56.2942 56.3984 56.2942 49.2828 56.2942C48.6 56.2942 48.025 56.1504 48.025 57.2645C48.0609 67.6145 48.0609 77.9645 48.0609 88.3145C48.0609 89.8957 48.8875 90.7223 50.4687 90.7223C60.8187 90.7223 71.1687 90.7223 81.5187 90.7582C82.3093 90.7582 82.489 90.5067 82.489 89.752C82.4531 87.416 82.4531 85.0801 82.489 82.7442C82.489 80.6957 83.2078 79.977 85.2203 79.977C87.5203 79.977 89.7843 79.941 92.0844 80.0129C93.0187 80.0489 93.2703 79.7973 93.2703 78.827C93.2344 71.7473 93.2344 64.6676 93.2703 57.5879C93.2703 56.4739 92.9109 56.2942 91.9047 56.2942C84.825 56.3301 77.7453 56.2942 70.6656 56.2942ZM70.6656 52.0176C77.7812 52.0176 84.8969 52.0176 92.0484 52.0176C92.4437 52.0176 93.0547 52.3411 93.2703 51.5864C93.8812 49.2504 92.7312 47.7411 90.2515 47.7411C77.2062 47.7411 64.1968 47.7411 51.1515 47.7411C48.7078 47.7411 48.0968 48.3879 48.025 50.8317C47.989 51.8739 48.3484 52.0536 49.3187 52.0536C56.3984 51.9817 63.55 52.0176 70.6656 52.0176ZM90 84.3614C86.514 84.1098 86.2625 84.3973 86.9812 87.3801C87.9515 86.4098 88.8859 85.4395 90 84.3614Z" fill="#0066FF"/>
<path d="M7.16404 67.0395C7.23592 37.6785 28.4031 12.5582 57.225 7.67072C61.6453 6.91603 66.1375 6.5926 70.6297 6.91603C71.5281 6.98791 71.8156 6.77228 71.7797 5.87385C71.7078 4.83166 71.7437 3.82541 71.7797 2.78322C71.8515 0.734782 73.4328 -0.23553 75.1937 0.77072C78.7156 2.81916 82.2015 4.93947 85.6875 7.05978C87.3047 8.06603 87.2687 9.86291 85.6515 10.8692C82.2015 13.0254 78.6797 15.1098 75.1578 17.1582C73.4687 18.1285 71.8875 17.1942 71.7797 15.2176C71.7437 14.4988 71.7797 13.7801 71.7797 13.0613C71.7797 11.2285 71.7797 11.2285 69.875 11.1567C42.4547 9.79103 17.514 29.5207 12.4828 56.366C10.6859 65.9614 11.225 75.341 14.3156 84.6129C14.639 85.5473 14.3875 85.8348 13.525 86.1223C10.5062 87.2004 10.5062 87.2004 9.60779 84.1457C7.99061 78.7192 7.12811 72.7176 7.16404 67.0395ZM80.4406 8.96447C78.8953 8.0301 77.5656 7.23947 76.0922 6.37697C76.0922 8.17385 76.0922 9.79103 76.0922 11.552C77.5656 10.6895 78.8953 9.89885 80.4406 8.96447Z" fill="#0066FF"/>
<path d="M67.3593 127.199C66.2453 127.199 65.1312 127.271 64.0172 127.163C63.2984 127.091 63.0469 127.307 63.0828 128.025C63.1187 129.104 63.1187 130.182 63.0828 131.26C63.0469 133.416 61.4297 134.386 59.6328 133.308C56.1468 131.26 52.6968 129.211 49.2828 127.091C47.5937 126.049 47.6297 124.252 49.3187 123.21C52.7687 121.089 56.2187 119.005 59.6687 116.993C61.4297 115.95 63.0468 116.921 63.1187 118.969C63.1547 119.832 63.1906 120.694 63.1187 121.521C63.0109 122.563 63.4062 122.886 64.4125 122.958C71.0609 123.318 77.6015 122.671 83.8906 120.514C105.705 113.075 118.714 97.8738 122.739 75.1613C124.248 66.5363 123.314 58.0191 120.583 49.6816C120.223 48.5676 120.511 48.2441 121.517 47.9207C124.32 46.9863 124.32 46.9504 125.183 49.7895C135.497 83.8941 113.503 119.939 78.5 126.264C74.7984 126.947 71.0968 127.307 67.3593 127.199ZM58.7343 122.563C57.2609 123.461 55.8953 124.252 54.3859 125.186C55.9672 126.121 57.2968 126.911 58.7343 127.774C58.7343 125.941 58.7343 124.36 58.7343 122.563Z" fill="#0066FF"/>
<path d="M114.797 0.339478C125.327 0.339478 134.059 9.03635 134.095 19.566C134.131 30.3113 125.47 39.0442 114.797 39.0801C104.052 39.0801 95.3906 30.4551 95.3547 19.7098C95.3547 9.03635 104.052 0.375415 114.797 0.339478ZM129.819 19.7098C129.855 11.516 123.098 4.68791 114.905 4.65198C106.531 4.61604 99.7391 11.3004 99.7031 19.6379C99.6672 27.9395 106.423 34.7676 114.653 34.7676C122.991 34.8035 129.783 28.0832 129.819 19.7098Z" fill="#0066FF"/>
<path d="M20.0297 133.775C9.46405 133.775 0.731239 125.114 0.695302 114.585C0.659364 103.839 9.3203 95.0348 19.9578 95.0348C30.7031 95.0348 39.4 103.66 39.4359 114.369C39.4359 125.079 30.775 133.775 20.0297 133.775ZM20.0297 99.3473C11.6922 99.3832 4.97186 106.175 5.0078 114.549C5.04374 122.779 11.8719 129.499 20.1734 129.463C28.475 129.391 35.1234 122.635 35.1234 114.333C35.0875 106.068 28.2594 99.3114 20.0297 99.3473Z" fill="#0066FF"/>
<path d="M67.3953 64.9192C67.3953 67.0754 67.3953 67.0754 64.8078 67.0395C63.1187 67.0395 63.1187 67.0395 63.1187 64.4161C63.1187 62.7629 63.1187 62.7629 65.7781 62.7629C67.3953 62.7629 67.3953 62.7629 67.3953 64.9192Z" fill="#0066FF"/>
<path d="M76.0922 62.7629C78.1406 62.7629 78.1406 62.7629 78.1406 64.9192C78.1406 67.0754 78.1406 67.0754 75.9844 67.0754C73.8641 67.0754 73.8641 67.0754 73.8641 64.9911C73.8641 62.7629 73.8641 62.7629 76.0922 62.7629Z" fill="#0066FF"/>
<path d="M88.9219 64.9551C88.9219 67.0754 88.9219 67.0754 86.4062 67.0754C84.6094 67.0754 84.6094 67.0754 84.6094 64.4161C84.6094 62.7629 84.6094 62.7629 87.3047 62.7629C88.9219 62.7629 88.9219 62.7629 88.9219 64.9551Z" fill="#0066FF"/>
<path d="M56.65 73.5082C56.65 75.7004 56.65 75.7004 54.0984 75.7004C52.3734 75.7004 52.3734 75.7004 52.3734 73.1129C52.3734 71.3879 52.3734 71.3879 55.1406 71.4238C56.65 71.3879 56.65 71.3879 56.65 73.5082Z" fill="#0066FF"/>
<path d="M65.2391 71.3879C67.3953 71.3879 67.3953 71.3879 67.3953 73.9754C67.3953 75.7004 67.3953 75.7004 64.7719 75.7004C63.0828 75.7004 63.0828 75.7004 63.0828 73.0411C63.0828 71.3879 63.0828 71.3879 65.2391 71.3879Z" fill="#0066FF"/>
<path d="M75.9484 75.6645C73.8641 75.6645 73.8641 75.6645 73.8641 73.1489C73.8641 71.352 73.8641 71.352 76.5594 71.352C78.1766 71.352 78.1766 71.352 78.1766 74.0473C78.1766 75.6645 78.1766 75.6645 75.9484 75.6645Z" fill="#0066FF"/>
<path d="M88.9219 73.5442C88.9219 75.6645 88.9219 75.6645 86.4422 75.6645C84.6094 75.6645 84.6094 75.6645 84.6094 73.0051C84.6094 71.352 84.6094 71.352 87.3047 71.352C88.9219 71.3879 88.9219 71.3879 88.9219 73.5442Z" fill="#0066FF"/>
<path d="M56.65 82.1692C56.65 84.2895 56.65 84.2895 54.1703 84.2895C52.3375 84.2895 52.3375 84.2895 52.3375 81.6301C52.3375 79.977 52.3375 79.977 55.0328 79.977C56.65 79.977 56.65 79.977 56.65 82.1692Z" fill="#0066FF"/>
<path d="M65.275 84.2895C63.0828 84.2895 63.0828 84.2895 63.0828 81.7379C63.0828 80.0129 63.0828 80.0129 65.6703 80.0129C67.3953 80.0129 67.3953 80.0129 67.3594 82.7801C67.3953 84.2895 67.3953 84.2895 65.275 84.2895Z" fill="#0066FF"/>
<path d="M75.9484 79.977C78.1406 79.977 78.1406 79.977 78.1406 82.2411C78.1406 84.2895 78.1406 84.2895 76.1281 84.2895C73.8641 84.2895 73.8641 84.2895 73.8641 81.9536C73.8641 79.977 73.8641 79.977 75.9484 79.977Z" fill="#0066FF"/>
<path d="M110.844 27.9395C110.341 27.9035 109.766 27.6879 109.334 27.2207C108.041 25.927 106.747 24.5973 105.417 23.3395C104.914 22.8723 105.022 22.5489 105.453 22.1535C106.28 21.3989 106.998 20.1051 107.897 19.9973C108.723 19.8895 109.478 21.2551 110.197 22.0457C110.844 22.7285 111.203 22.5848 111.778 22.0098C114.761 18.991 117.78 16.0082 120.762 12.9535C121.373 12.3426 121.697 12.127 122.416 12.8817C124.644 15.1817 124.68 15.1457 122.416 17.4098C119.253 20.5723 116.091 23.7348 112.928 26.8973C112.353 27.4364 111.814 27.9035 110.844 27.9395Z" fill="#0066FF"/>
<path d="M15.9328 117.639C16.7594 117.711 17.5859 117.568 18.4484 118.43C19.1672 119.149 20.5687 118.861 21.6469 118.538C22.1141 118.394 22.2578 117.891 22.15 117.424C22.0062 116.957 21.7187 116.633 21.2156 116.633C20.4969 116.597 19.7781 116.633 19.0594 116.597C16.3281 116.525 14.2437 114.8 13.7047 112.213C13.2016 109.769 14.5672 107.254 17.0109 106.283C17.7297 105.996 18.0172 105.636 17.9094 104.918C17.7297 103.875 18.1969 103.552 19.1672 103.696C19.5984 103.768 20.0656 103.732 20.4969 103.696C21.6828 103.552 22.5453 103.768 22.2219 105.277C22.0781 105.96 22.6172 106.032 23.0844 106.247C24.9172 107.002 25.9953 108.404 26.4625 110.308C26.6062 110.955 26.4984 111.314 25.7078 111.243C24.8094 111.171 23.9109 111.243 23.0125 111.207C22.7609 111.207 22.4375 111.314 22.2578 111.027C21.4672 109.482 20.0297 110.272 18.8797 110.164C18.2687 110.129 17.9094 110.632 17.9453 111.243C17.9812 111.854 18.3406 112.249 18.9875 112.249C19.7422 112.285 20.4969 112.249 21.2875 112.285C23.875 112.393 25.9594 114.189 26.4625 116.741C26.8937 119.113 25.6359 121.593 23.3 122.527C22.4375 122.886 22.0422 123.282 22.2219 124.18C22.4016 125.043 21.9703 125.294 21.1797 125.186C20.6406 125.114 20.1016 125.114 19.5625 125.186C18.3766 125.33 17.6219 125.114 17.9094 123.677C18.0172 123.066 17.6578 122.886 17.1187 122.671C15.3937 121.988 14.2797 120.73 13.7766 118.897C13.4891 117.891 13.7047 117.46 14.7828 117.639C15.1062 117.675 15.5016 117.639 15.9328 117.639Z" fill="#0066FF"/>
</svg>
