<svg width="17" height="17" viewBox="0 0 17 17" fill="none" xmlns="http://www.w3.org/2000/svg">
<path d="M0.03125 8.21777C0.03125 8.48299 0.136607 8.73734 0.324143 8.92488C0.51168 9.11242 0.766034 9.21777 1.03125 9.21777H6.86458C6.90879 9.21777 6.95118 9.23533 6.98243 9.26659C7.01369 9.29784 7.03125 9.34024 7.03125 9.38444V15.2178C7.03125 15.483 7.13661 15.7373 7.32414 15.9249C7.51168 16.1124 7.76603 16.2178 8.03125 16.2178C8.29647 16.2178 8.55082 16.1124 8.73836 15.9249C8.92589 15.7373 9.03125 15.483 9.03125 15.2178V9.38444C9.03125 9.34024 9.04881 9.29784 9.08007 9.26659C9.11132 9.23533 9.15371 9.21777 9.19792 9.21777H15.0312C15.2965 9.21777 15.5508 9.11242 15.7384 8.92488C15.9259 8.73734 16.0312 8.48299 16.0312 8.21777C16.0312 7.95256 15.9259 7.6982 15.7384 7.51067C15.5508 7.32313 15.2965 7.21777 15.0312 7.21777H9.19792C9.15371 7.21777 9.11132 7.20021 9.08007 7.16896C9.04881 7.1377 9.03125 7.09531 9.03125 7.05111V1.21777C9.03125 0.952557 8.92589 0.698203 8.73836 0.510667C8.55082 0.32313 8.29647 0.217773 8.03125 0.217773C7.76603 0.217773 7.51168 0.32313 7.32414 0.510667C7.13661 0.698203 7.03125 0.952557 7.03125 1.21777V7.05111C7.03125 7.09531 7.01369 7.1377 6.98243 7.16896C6.95118 7.20021 6.90879 7.21777 6.86458 7.21777H1.03125C0.766034 7.21777 0.51168 7.32313 0.324143 7.51067C0.136607 7.6982 0.03125 7.95256 0.03125 8.21777Z" fill="#222222"/>
</svg>
